<?xml version="1.0" encoding="UTF-8" standalone="no"?>
<!-- Created with Inkscape (http://www.inkscape.org/) -->

<svg
   version="1.1"
   id="svg2"
   width="355.1123"
   height="737.49524"
   viewBox="0 0 355.11232 737.49524"
   sodipodi:docname="Luca.svg"
   inkscape:version="1.2 (dc2aedaf03, 2022-05-15)"
   xmlns:inkscape="http://www.inkscape.org/namespaces/inkscape"
   xmlns:sodipodi="http://sodipodi.sourceforge.net/DTD/sodipodi-0.dtd"
   xmlns="http://www.w3.org/2000/svg"
   xmlns:svg="http://www.w3.org/2000/svg">
  <defs
     id="defs6" />
  <sodipodi:namedview
     id="namedview4"
     pagecolor="#ffffff"
     bordercolor="#000000"
     borderopacity="0.25"
     inkscape:showpageshadow="2"
     inkscape:pageopacity="0.0"
     inkscape:pagecheckerboard="0"
     inkscape:deskcolor="#d1d1d1"
     showgrid="false"
     showguides="true"
     inkscape:zoom="1.4142136"
     inkscape:cx="99.348502"
     inkscape:cy="519.36993"
     inkscape:window-width="1246"
     inkscape:window-height="739"
     inkscape:window-x="603"
     inkscape:window-y="55"
     inkscape:window-maximized="0"
     inkscape:current-layer="layer2" />
  <g
     inkscape:groupmode="layer"
     id="layer2"
     inkscape:label="colors">
    <path
       style="font-variation-settings:normal;opacity:1;vector-effect:none;fill:#1b0c02;fill-opacity:1;stroke:#1b0c02;stroke-width:0.672255;stroke-linecap:butt;stroke-linejoin:miter;stroke-miterlimit:4;stroke-dasharray:none;stroke-dashoffset:0;stroke-opacity:1;-inkscape-stroke:none;stop-color:#000000;stop-opacity:1"
       d="m 72.083552,732.36831 c -0.21456,-2.3662 -1.177917,-5.63938 -1.071349,-5.74594 0.106568,-0.10658 1.603873,0.6306 2.487068,0.95074 1.262851,0.4577 3.983443,0.21014 7.232899,-0.0832 6.116285,-0.55205 14.134833,-1.21431 16.527813,-2.79791 3.971447,-2.62818 3.215227,-4.92483 -2.096617,-6.3674 l -3.407397,-0.40458 3.602893,-1.70034 c 1.3138,-0.62003 3.775273,-1.5001 4.979018,-2.40121 4.57417,-3.42418 -0.0189,-5.5977 -11.828992,-5.5977 l -3.196388,0.6875 -4.271225,-0.6875 -1.379199,-1.8066 c -1.904215,-2.49432 -13.41755,-11.76069 -11.192762,-10.1765 1.471916,1.0481 -4.202926,-23.4108 -1.928935,-22.51863 1.826301,0.71652 19.760784,28.62526 20.632817,27.68427 0.543046,-0.58596 1.25376,-5.11535 1.570391,-5.71489 1.259588,-2.38502 -2.714447,-3.68266 -10.56233,-12.33793 -9.220559,-10.16917 6.186074,-9.8027 6.186445,-19.55816 l -0.883561,-8.10924 -2.558692,-7.35262 -3.442573,-6.99909 -0.09711,-11.09221 c -0.23527,-26.8721 5.923649,-65.32191 10.83672,-91.25864 l 1.814625,-9.57963 h 3.578378 c 5.719209,0 15.041061,1.174 40.163291,5.0582 28.94767,4.47566 34.55379,5.16379 62.85586,7.71528 24.94269,2.24864 38.00569,3.84665 52.09977,6.37342 5.17637,0.92801 9.60532,1.68858 9.84212,1.69015 0.90889,0.006 5.731,18.67364 7.29485,28.43009 0.36255,2.26189 0.0177,4.10394 0.0152,5.05603 -0.005,1.96235 0.33867,5.67681 0.76434,8.25435 0.13028,0.78889 1.29119,1.4519 1.37428,2.35302 0.48924,5.30594 -0.7993,12.73831 -3.11295,24.42761 -0.94667,4.7829 -1.01052,7.31087 -1.97467,9.34268 -0.59405,1.25188 -2.21197,2.48934 -3.35667,4.14622 -3.05475,4.42157 -2.39145,6.98185 -1.91072,9.61078 0.51313,2.80607 0.1505,0.70087 -8.82698,12.93739 -5.37276,7.32317 -8.85926,12.4094 -8.6692,13.04109 1.16994,3.88843 1.7923,12.11477 1.79671,25.73525 0.003,9.50882 -0.25152,15.30171 0.17065,16.09055 1.63073,3.04703 9.05401,1.14801 12.12075,-3.40272 1.89923,-2.81827 2.46572,-6.01085 2.95134,-12.36746 l 0.49064,-6.42232 2.0429,3.26649 c 0.86702,1.38631 2.39645,2.98684 2.39645,3.40126 0,0.41443 -0.9989,5.20874 -2.3278,9.46572 -1.28955,4.13089 -1.74881,6.18514 -2.93049,8.09572 -0.98565,1.59363 -3.27901,3.28138 -5.71981,6.02243 -1.88845,2.12075 -3.47609,4.00097 -5.01518,5.51856 -1.1075,1.09203 -2.62128,1.68486 -3.32169,2.03709 -2.67626,1.34588 -4.10102,2.46349 -4.88635,4.94724 -0.13093,0.41409 -0.52534,0.88611 -0.62356,1.35718 -0.56359,2.70304 1.99463,2.44724 5.52032,1.36517 1.75548,-0.53877 3.70439,-0.75547 8.68366,-0.23025 6.42417,0.67758 6.01588,-0.96526 10.31978,-2.39381 3.22861,-1.07164 5.07353,-1.34977 6.60077,-3.01166 1.19705,-1.30258 4.05911,-2.17337 5.81998,-3.1234 2.44391,-1.31855 3.83866,-1.70222 5.32342,-4.47227 2.47221,-4.61228 5.50556,-14.61846 7.94816,-23.68416 0.44258,-1.64261 0.50588,-4.01508 1.02506,-5.73574 1.80811,-5.99248 4.75743,-12.99778 4.84443,-12.09519 0.0261,0.27084 1.50301,5.36479 2.20265,9.76611 0.25547,1.60714 0.18339,3.4578 0.47706,5.28741 0.81549,5.08065 1.48045,8.21432 1.77021,11.66615 0.33749,4.02041 -0.38969,8.55465 -0.38692,15.45984 l 0.006,16.2625 -24.89288,-0.18081 c -13.5898,-0.0987 -31.82015,0.007 -40.97433,0.008 l -16.83145,0.25067 -3.17747,-6.69473 c -7.8012,-16.43663 -13.07748,-31.32365 -14.22526,-39.57602 -0.23995,-1.72521 -0.54222,-5.71757 -0.80144,-10.51261 -0.15045,-2.78313 -0.0847,-7.80708 -0.19973,-9.01155 l -1.3616,-14.25429 -1.39369,-3.9204 c -0.27002,-0.75954 -1.0507,-1.27683 -1.4657,-1.86748 -0.3317,-0.4721 -0.30211,-1.03895 -0.53187,-1.46112 -1.801,-3.30917 -3.22327,-4.40087 -4.6619,-4.21895 -1.8452,0.23334 -1.68034,2.07367 -2.46595,9.99804 -0.76988,7.76577 -4.55542,26.7063 -6.6991,32.19275 -0.73869,1.89057 -4.40871,9.71015 -7.72347,15.8644 -7.21699,13.39923 -11.06048,20.97981 -11.5716,27.65061 l 0.68721,6.28806 -18.54378,-0.88388 c -4.43187,-0.21124 -12.12288,0.26886 -20.45183,0.27776 -7.08902,0.008 -14.5885,-0.48118 -21.488474,-0.36446 l -26.224936,0.44361 -0.460445,-1.50657 0.07034,-2.79562 z"
       id="path10080"
       sodipodi:nodetypes="cscssscsssccssssssscccsscsssscscsssssssssssscsssssssssssssssssssssccsccsssscsssssssscssscccc" />
    <path
       style="font-variation-settings:normal;opacity:1;vector-effect:none;fill:none;fill-opacity:1;stroke:#000000;stroke-width:1;stroke-linecap:butt;stroke-linejoin:miter;stroke-miterlimit:4;stroke-dasharray:none;stroke-dashoffset:0;stroke-opacity:0.966102;-inkscape-stroke:none;stop-color:#000000;stop-opacity:1"
       d="m 156.98638,198.58005 2.25794,12.95345"
       id="path3615" />
    <path
       style="font-variation-settings:normal;opacity:1;fill:#d95700;fill-opacity:1;stroke:#d95700;stroke-width:0.950712;stroke-linecap:butt;stroke-linejoin:miter;stroke-miterlimit:4;stroke-dasharray:none;stroke-dashoffset:0;stroke-opacity:1;stop-color:#000000;stop-opacity:1"
       d="m 180.94531,196.59884 c -1.70433,-0.26085 -3.84188,-2.07372 -6.48568,-5.50058 -2.16892,-2.81133 -7.82276,-8.42926 -12.56409,-12.48429 -4.74133,-4.05504 -11.12788,-10.52794 -14.19232,-14.38422 -5.31643,-6.69016 -5.57194,-7.25904 -5.57664,-12.41573 -0.003,-2.97237 -0.24483,-9.68252 -0.53806,-14.91144 l -0.53314,-9.50712 3.92804,4.23321 c 3.14876,3.39339 4.10136,3.95922 4.80171,2.85214 1.12379,-1.77647 1.11861,-3.0664 -0.0244,-6.07275 -0.89889,-2.36427 -0.81188,-2.43867 2.85214,-2.43867 2.07862,0 3.77639,-0.32087 3.77282,-0.71303 -0.004,-0.39217 -1.52074,-1.74434 -3.37148,-3.00483 -4.3552,-2.9662 -6.73738,-6.3829 -8.16077,-11.7048 -1.02377,-3.82778 -0.91297,-4.91499 1.03057,-10.11196 1.19772,-3.202676 1.95335,-6.680846 1.67919,-7.729265 -0.45575,-1.742757 -0.15971,-1.857753 3.45221,-1.341054 2.17289,0.310839 5.02026,1.313016 6.32749,2.227058 3.07315,2.148817 10.41428,11.699021 9.78375,12.727851 -0.26638,0.43466 0.60473,1.93204 1.93582,3.3275 2.36498,2.47937 4.46563,6.76507 4.41941,9.0164 -0.0127,0.61957 -1.13814,-0.87642 -2.50093,-3.32443 -2.43241,-4.36939 -2.59309,-4.46881 -8.77096,-5.42744 -7.17481,-1.11331 -14.37422,-1.739 -14.37422,-1.24924 0,1.33377 5.43831,9.15798 7.67139,11.03699 5.71354,4.80763 20.69607,8.50218 19.25554,4.74823 -0.32123,-0.83711 -0.048,-1.8533 0.60713,-2.25821 1.49121,-0.92162 -1.05593,-10.52703 -3.28129,-12.37391 -2.19028,-1.81777 -1.78335,-2.37241 2.60486,-3.55042 4.20111,-1.12778 9.44489,-5.51083 11.6165,-9.709733 l 1.25912,-2.434572 h -9.17111 c -7.35905,0 -9.68401,-0.347929 -11.76701,-1.760927 -2.08191,-1.412265 -2.41133,-2.10579 -1.66374,-3.50267 2.38828,-4.462552 0.31566,-11.059902 -3.94025,-12.542201 -1.03749,-0.361346 -0.94465,-0.864012 0.44992,-2.43601 1.50875,-1.700714 1.60359,-2.445993 0.67089,-5.272093 -0.60201,-1.824126 -0.77979,-4.499543 -0.39879,-6.001562 l 0.68746,-2.710182 0.8423,3.327493 c 0.49894,1.971048 2.27054,4.550852 4.34592,6.328514 l 3.50362,3.001021 -0.15629,7.74659 c -0.17599,8.722697 0.67145,9.379045 4.24825,3.290281 1.99242,-3.391697 2.13891,-4.493068 1.61974,-12.178006 -0.49796,-7.37107 -0.9435,-8.990799 -3.49209,-12.69504 -2.86118,-4.158579 -2.88444,-4.282834 -1.13046,-6.036816 2.75755,-2.757557 9.39771,-3.266035 15.54831,-1.19063 4.72384,1.593968 5.96359,1.647637 12.83462,0.55561 11.92066,-1.894574 17.23304,-0.101811 14.8962,5.027 -0.58856,1.291745 -1.6547,2.348627 -2.36921,2.348627 -2.394,0 -4.44593,3.378422 -4.44593,7.320058 0,3.856411 5.26014,17.398463 6.75809,17.398463 0.42389,0 0.89496,-3.529519 1.04684,-7.843377 0.25943,-7.369243 0.40853,-7.862148 2.46645,-8.15389 1.30801,-0.185432 2.56337,-1.29171 3.11641,-2.746312 1.3989,-3.679384 1.91861,-2.11084 0.65971,1.991054 -0.84374,2.74915 -0.8365,4.016456 0.0309,5.40535 0.62316,0.997838 1.13301,3.553151 1.13301,5.678471 0,3.235322 0.58023,4.410011 3.56518,7.217792 l 3.56517,3.353573 -4.27821,-0.396716 c -3.60592,-0.334375 -5.3685,0.194238 -11.21648,3.363912 -6.32418,3.427773 -7.4181,3.720429 -12.35927,3.306472 -2.98153,-0.249786 -6.23728,-0.799259 -7.23498,-1.221054 -1.65624,-0.700203 -1.76246,-0.442976 -1.22134,2.957646 0.41549,2.611187 1.62785,4.680104 4.05573,6.921204 3.28741,3.03451 3.754,3.17562 9.19856,2.78179 5.26502,-0.38084 6.01697,-0.72751 9.16682,-4.22627 1.88723,-2.09627 4.57793,-5.319879 5.97932,-7.163578 1.98718,-2.614364 3.41692,-3.468725 6.49583,-3.881695 4.28753,-0.575078 5.68557,-1.36827 4.23862,-2.404825 -0.50775,-0.363737 -1.71342,-2.081161 -2.67927,-3.816499 -1.70765,-3.06812 -1.70765,-3.19186 0,-4.485648 2.50563,-1.898372 2.62515,-1.83141 4.91506,2.753699 2.63086,5.26778 2.62381,5.354786 -0.78219,9.640669 -3.53486,4.448044 -3.65137,8.110787 -0.39385,12.381607 2.69228,3.52976 2.50592,4.35211 -1.80899,7.98287 -2.51407,2.11545 -2.70927,2.70607 -2.17725,6.58759 0.44872,3.27376 0.209,4.67863 -1.03241,6.05037 -1.73812,1.9206 -2.05704,7.91928 -0.50362,9.4727 0.59481,0.59481 1.64507,-0.24936 2.96267,-2.38129 1.88992,-3.05795 3.7232,-4.44213 5.88335,-4.44213 1.66239,0 0.85993,2.58482 -2.0492,6.60077 -3.78875,5.23021 -2.60383,6.39168 1.59105,1.55956 1.77789,-2.04796 3.22961,-3.33142 3.22605,-2.85213 -0.004,0.47928 -1.00765,6.08573 -2.23131,12.45878 l -2.22482,11.58735 -10.27261,10.75439 c -11.09367,11.61395 -18.23841,20.63141 -19.11545,24.12582 -0.43255,1.72341 -1.56435,2.41284 -5.26337,3.20613 -4.52714,0.97091 -15.63564,1.14943 -20.94624,0.33664 z m 14.18841,-17.98878 c 4.15407,-1.11325 2.06092,-1.95466 -4.27821,-1.71977 -7.70784,0.28561 -7.88369,0.32962 -5.4666,1.36828 2.27822,0.97899 6.79535,1.14191 9.74481,0.35149 z m -14.25404,-5.34273 c 2.80761,-2.89734 3.38446,-3.08407 9.26057,-2.99763 5.7569,0.0847 6.53243,0.34996 9.53741,3.2625 4.47274,4.33515 5.47017,2.72847 1.09054,-1.75668 -3.45985,-3.54321 -3.61552,-3.59502 -10.60101,-3.52827 -6.74549,0.0644 -7.25268,0.22582 -10.44982,3.32461 -1.84812,1.79127 -3.36022,3.60076 -3.36022,4.02107 0,1.51992 1.58686,0.70391 4.52253,-2.3256 z m 13.42512,-13.93127 c 0.72061,-0.45643 0.99956,-1.33247 0.61991,-1.94678 -0.37966,-0.6143 0.062,-1.94822 0.98153,-2.96425 0.9195,-1.01605 1.39186,-2.12731 1.04967,-2.4695 -0.96608,-0.96609 -4.43665,2.61975 -4.43665,4.58401 0,2.97271 -3.75137,2.1855 -4.86945,-1.02185 -0.53223,-1.52675 -1.64076,-3.03419 -2.4634,-3.34986 -2.24345,-0.8609 -2.6815,0.18667 -0.90083,2.15428 0.86828,0.95944 1.57869,2.42379 1.57869,3.2541 0,2.39682 5.59358,3.56308 8.44053,1.75985 z m -6.53911,-21.00741 c 0,-7.6057 -0.36565,-12.35926 -0.95071,-12.35926 -0.58505,0 -0.95071,4.75356 -0.95071,12.35926 0,7.6057 0.36566,12.35926 0.95071,12.35926 0.58506,0 0.95071,-4.75356 0.95071,-12.35926 z m 5.70428,0 c 0,-7.6057 -0.36566,-12.35926 -0.95071,-12.35926 -0.58506,0 -0.95072,4.75356 -0.95072,12.35926 0,7.6057 0.36566,12.35926 0.95072,12.35926 0.58505,0 0.95071,-4.75356 0.95071,-12.35926 z m 26.32847,-14.82899 c 4.16518,-2.08183 6.39562,-4.02436 9.08556,-7.9128 1.96085,-2.83449 3.56518,-5.42167 3.56518,-5.74928 0,-0.60611 -10.68236,0.22049 -17.58818,1.36097 -3.4437,0.56872 -3.64035,0.49641 -2.08221,-0.7657 2.58903,-2.09715 0.16257,-2.95597 -2.58257,-0.91408 -1.26779,0.94302 -2.98292,2.85014 -3.81139,4.23805 -1.64378,2.75375 -2.03612,7.45901 -0.62197,7.45901 0.53837,0 0.55112,1.16192 0.0326,2.96996 l -0.85178,2.96997 4.66719,-0.44846 c 2.56696,-0.24665 7.15137,-1.69009 10.18759,-3.20764 z"
       id="path9340" />
    <path
       style="font-variation-settings:normal;opacity:1;vector-effect:none;fill:#d95700;fill-opacity:1;stroke:#d95700;stroke-width:0.950712;stroke-linecap:butt;stroke-linejoin:miter;stroke-miterlimit:4;stroke-dasharray:none;stroke-dashoffset:0;stroke-opacity:1;-inkscape-stroke:none;stop-color:#000000;stop-opacity:1"
       d="m 196.77811,344.46161 c -7.06852,-18.82537 -11.50482,-29.54814 -15.30298,-36.98802 -2.292,-4.48962 -4.1719,-9.40955 -4.17756,-10.93319 -0.006,-1.52365 -0.64739,-4.87042 -1.42607,-7.43726 -1.94634,-6.41593 -1.74691,-7.18646 1.0398,-4.01741 1.31752,1.49828 2.62653,2.49313 2.9089,2.21075 1.11965,-1.11965 -0.85912,-4.42997 -3.73738,-6.25236 -2.75888,-1.7468 -3.51192,-3.4028 -8.13603,-17.89194 -4.88945,-15.32056 -5.12874,-16.56353 -5.91071,-30.703 -0.8823,-15.95367 -1.49423,-20.46635 -5.78311,-42.64764 -1.55282,-8.03089 -2.61979,-14.80514 -2.37104,-15.05389 0.24875,-0.24876 5.7283,4.77002 12.17678,11.15283 6.99784,6.92658 12.8718,11.94147 14.57037,12.43944 3.91695,1.14834 16.50555,1.04778 22.21878,-0.17749 4.45604,-0.95565 4.86762,-1.30777 7.41482,-6.34356 3.3003,-6.52468 15.44265,-19.78074 15.46897,-16.88779 0.0197,2.17191 -2.35145,12.76329 -5.95969,26.61994 -1.3616,5.22892 -3.37632,16.92647 -4.47716,25.99454 -1.79122,14.75511 -1.8948,18.56542 -0.46584,17.13646 0.39997,-0.39997 3.2891,-23.04716 3.37981,-26.49353 0.0264,-1.00191 0.35103,-0.86052 1.09153,0.47536 0.57969,1.04578 4.59421,5.55219 8.92114,10.01423 6.07757,6.26734 8.04795,8.97064 8.66191,11.88391 1.03398,4.90629 0.54156,28.41064 -0.69114,32.98933 -1.14377,4.24839 -2.45692,5.02441 -9.92266,5.86387 -5.44508,0.61226 -12.83462,4.2989 -12.83462,6.40318 0,1.46078 1.95626,0.87635 5.10459,-1.52499 2.91293,-2.2218 13.90966,-4.5745 13.90966,-2.9759 0,0.35406 -1.50967,2.87293 -3.35481,5.59749 -2.02509,2.99025 -4.71115,9.28057 -6.77676,15.87009 -2.32639,7.42141 -5.41752,14.42211 -9.65502,21.86639 -3.42819,6.02252 -7.81675,14.50927 -9.75235,18.85945 l -3.51928,7.90944 z"
       id="path9342" />
    <path
       style="font-variation-settings:normal;opacity:1;vector-effect:none;fill:#d95700;fill-opacity:1;stroke:#d95700;stroke-width:0.950712;stroke-linecap:butt;stroke-linejoin:miter;stroke-miterlimit:4;stroke-dasharray:none;stroke-dashoffset:0;stroke-opacity:1;-inkscape-stroke:none;stop-color:#000000;stop-opacity:1"
       d="m 64.479783,721.90613 -10.626495,-4.89008 -3.995066,-8.64588 C 43.50645,694.62408 38.696438,687.21758 34.070027,684.49699 l -4.221604,-2.48254 3.965205,-22.86232 c 0.459832,-2.65127 0.150793,-4.9923 0.492565,-7.06568 2.288531,-13.88351 2.760066,-15.76648 1.642663,-18.43665 -0.389522,-0.93081 -1.291301,-1.90137 -1.451099,-2.99839 -0.209239,-1.43644 0.407091,-3.04505 0.608505,-4.61485 0.369698,-2.88139 -0.536364,-7.52254 -2.123907,-14.54836 -1.29871,-5.74756 -4.726731,-19.37193 -6.624773,-30.35276 -1.293516,-7.48344 -2.94855,-16.4698 -4.468183,-23.91128 -0.710201,-3.47777 -1.086224,-6.81351 -1.526307,-9.14508 -1.330384,-7.04839 -1.775221,-10.81472 -1.84728,-13.89195 -0.03552,-1.51691 -0.408882,-3.13085 -0.08657,-4.89291 0.159142,-0.87003 0.433142,-1.27616 0.145478,-2.22456 -1.503163,-4.95577 2.077948,-10.71144 2.254472,-14.11111 l 0.340869,-6.56477 10.713361,0.57214 c 0.541839,0.0289 1.005389,-0.35502 1.604892,-0.33655 0.505737,0.0156 1.217917,0.49658 1.758913,0.50561 2.210461,0.0369 4.690334,0.53049 7.261589,0.48468 3.505463,-0.0625 7.118273,-0.95771 10.512304,-1.24627 5.549488,-0.47182 10.409485,-0.47219 12.482977,-1.09433 2.035823,-0.61084 1.356912,2.88568 4.707214,23.99201 l 0.809836,5.10183 -0.100746,8.85256 -0.41277,10.36189 c -0.40236,10.10055 -4.257185,30.47051 -7.104551,43.13774 -0.782997,3.48335 -2.096659,6.13912 -2.378891,8.13493 -0.934781,6.61034 -0.967866,6.46344 1.419981,9.92751 1.363302,1.97775 6.981735,12.86566 11.995626,23.67252 l 1.925868,4.15098 7.060699,15.21851 -0.568925,7.16206 c -0.452908,5.70155 0.291765,8.83434 2.099003,16.39776 1.525822,6.38567 4.549372,18.14483 3.876479,18.5607 -0.550636,0.34031 -1.359385,4.64455 -3.417672,4.97368 -3.636814,0.58155 -4.342972,-4.66258 -3.719621,-1.68178 0.593828,2.83962 -3.352303,-3.63813 -5.223712,-4.4157 -1.429916,-0.59413 -3.082999,-4.95814 -3.148026,-10.51281 -0.07398,-6.31993 -1.301562,-9.13783 -2.895401,-10.76568 l -2.165383,-2.21159 -1.219451,4.18189 -2.827337,3.60008 c -0.517273,0.65865 -0.808298,1.60483 -1.201804,2.17686 -1.254342,1.82341 -2.081149,2.6705 -2.555073,4.36364 -1.100866,3.93294 -1.021923,7.54684 0.900936,13.77234 0.528549,1.71124 1.432002,2.71693 1.848301,3.69323 1.042053,2.44381 1.664597,3.38711 5.031057,5.09304 2.046207,1.0369 5.096217,1.75563 7.128377,2.94549 0.665367,0.38958 1.386818,1.12427 1.869719,1.42911 2.696465,1.70221 4.69245,1.70754 9.20793,1.77933 10.901858,0.17333 15.59465,3.46673 8.571264,5.97432 -1.128776,0.40301 -3.044788,1.50075 -5.480529,1.84605 -2.415464,0.34242 -5.347222,-0.0665 -7.29987,0.0778 -3.180447,0.23502 -2.783501,1.47713 -4.75911,1.08933 -0.504215,-0.099 -0.972002,0.27544 -1.908086,0.0159 -2.084878,-0.57802 -5.255096,-2.07295 -7.556804,-3.16472 -1.574598,-0.74688 -2.986125,-0.93693 -3.532838,-2.30371 z"
       id="path9344"
       sodipodi:nodetypes="ccsscssssssssssssscsssssssccsssssccssssssssccssssssssssssssssc" />
    <path
       style="font-variation-settings:normal;opacity:1;vector-effect:none;fill:#d95700;fill-opacity:1;stroke:#d95700;stroke-width:0.950712;stroke-linecap:butt;stroke-linejoin:miter;stroke-miterlimit:4;stroke-dasharray:none;stroke-dashoffset:0;stroke-opacity:1;-inkscape-stroke:none;stop-color:#000000;stop-opacity:1"
       d="m 238.41666,733.15025 c 0,-1.19312 0.32207,-3.5786 1.75982,-4.96757 2.63359,-2.54423 7.42691,-5.35023 13.02031,-6.30236 l 4.76101,-0.81042 2.69756,-8.94814 c 1.48777,-4.93512 2.53426,-9.89051 2.8208,-12.82477 0.47642,-4.87862 0.70284,-6.49785 -2.54978,-12.31408 -1.9563,-3.49819 -3.24852,-6.62455 -3.51978,-6.3533 -0.27126,0.27126 -0.85723,4.43829 -1.30215,9.26006 -0.44493,4.82177 -0.37851,10.42634 -0.92184,12.07265 -1.2005,3.63755 -1.83497,5.12007 -3.75154,5.79376 -0.96645,0.33971 -4.10481,3.16757 -6.84465,2.71125 -2.568,-0.4277 1.55719,-2.03974 -1.53084,-0.85475 -0.7472,0.28673 -0.44325,-4.10752 -0.42819,-5.93014 l 0.0554,-6.70145 -0.0155,-14.05189 c -0.008,-6.97804 -1.66319,-15.08949 -1.98564,-15.87765 -0.37278,-0.91117 2.68059,-4.37386 8.38472,-12.13237 7.85345,-10.68192 9.61824,-11.91308 9.19769,-14.54154 -0.14479,-0.90497 -1.03271,-2.27358 -0.84899,-3.09122 0.28828,-1.28289 1.7901,-2.88895 3.18445,-4.80717 2.29735,-3.16049 3.93667,-7.31406 5.25933,-13.96702 1.25065,-6.29074 2.41244,-14.5471 2.75725,-24.99592 0.28412,-8.60998 0.0492,-18.65065 0.11477,-30.80407 l 0.17619,-32.65657 4.36127,-12.42476 c 1.61933,-4.61329 2.05592,-7.98262 3.42342,-8.94185 2.17854,-1.52814 6.44777,1.42912 19.57038,2.88845 8.3332,0.92671 16.36106,1.2824 20.56278,0.91106 l 6.89266,-0.60915 v 15.13236 15.13235 l -3.26661,7.16812 c -5.46084,11.98301 -12.24704,31.10206 -21.66768,61.0452 l -8.97332,28.52137 1.16643,4.94879 -0.92698,7.45484 c -0.70462,5.66658 1.09687,14.95113 1.30412,18.27492 0.17422,2.794 1.65471,4.46926 1.41178,6.44844 -0.23969,1.95275 -1.86532,4.16043 -3.17369,8.24323 -1.55462,4.85121 -2.68902,12.24295 -3.81726,16.42608 -1.12825,4.18314 -3.73292,10.85422 -5.46409,14.60858 -1.53932,3.33829 -2.38466,5.24435 -3.32022,6.50788 -0.66481,0.89787 -2.08317,1.25075 -3.42588,1.93575 -2.12502,1.0841 -5.005,2.69405 -5.5357,3.68567 -0.57701,1.07817 -5.56221,2.97398 -9.76768,3.91445 -4.49501,1.00523 -8.81841,0.31266 -11.46418,0.31266 -5.1203,0 3.41442,-1.70299 11.212,-3.7611 6.31528,-1.66685 5.64811,-1.2568 12.12752,-9.8113 3.57479,-4.71966 8.20466,-8.63141 9.10027,-9.77307 1.90324,-2.42616 3.49337,-16.96844 1.9591,-17.91667 -0.57398,-0.35474 -1.18733,2.36182 -1.57043,6.9555 l -0.36344,9.39374 -7.82456,10.37591 -4.39124,5.28888 -3.69849,3.23086 -10.82397,3.05434 c -5.95318,1.67989 -11.03289,3.8409 -11.74658,4.11478 -0.71369,0.27387 -2.36012,0.71013 -2.36012,0.35837 z"
       id="path9346"
       sodipodi:nodetypes="ssscsssssssssscssssssssscsssscccssccssssssssssssssssccccssss" />
    <path
       style="font-variation-settings:normal;opacity:1;vector-effect:none;fill:#d95700;fill-opacity:1;stroke:#d95700;stroke-width:0.237678;stroke-linecap:butt;stroke-linejoin:miter;stroke-miterlimit:4;stroke-dasharray:none;stroke-dashoffset:0;stroke-opacity:1;-inkscape-stroke:none;stop-color:#000000;stop-opacity:1"
       d="m 80.216357,717.19085 c -1.451243,-1.18115 -5.250654,-3.36039 -9.823723,-5.63461 l -4.951323,-2.46234 -1.035791,-2.18917 c -2.40627,-5.08573 -4.436583,-8.90957 -4.280163,-13.948 0.09257,-2.98191 0.830207,-3.96801 1.621632,-4.60501 l 0.756204,-0.93716 0.461985,0.97049 c 0.729122,1.53166 2.030504,7.1806 2.891253,9.08132 1.853653,4.09327 4.103183,7.1992 6.974153,9.62922 1.347186,1.14027 1.737522,0.47581 4.5033,1.26327 3.433025,0.97744 3.595507,1.00051 3.595507,0.48816 0,-0.28544 0.0078,0.29008 0.417589,0.43894 0.294127,0.10685 3.512152,0.38851 7.007936,0.34901 1.633072,-0.0184 3.062666,-0.70014 4.392392,-0.67575 1.516712,0.0278 2.847057,0.14232 3.213307,0.21003 1.428243,0.26406 4.682535,1.75398 5.333345,2.22986 0.41001,0.29981 -0.59343,0.89812 -1.883797,1.91089 -1.642935,1.28948 -6.286028,3.67005 -8.460436,4.40121 -1.315643,0.4424 -1.777562,-0.21614 -5.623291,-0.13363 -4.266433,0.0915 -4.548706,0.0702 -5.110079,-0.38673 z"
       id="path9348"
       sodipodi:nodetypes="sscssscssssssssssssss" />
    <path
       style="font-variation-settings:normal;opacity:1;vector-effect:none;fill:#d95700;fill-opacity:1;stroke:#d95700;stroke-width:0.237678;stroke-linecap:butt;stroke-linejoin:miter;stroke-miterlimit:4;stroke-dasharray:none;stroke-dashoffset:0;stroke-opacity:1;-inkscape-stroke:none;stop-color:#000000;stop-opacity:1"
       d="m 76.359747,707.99178 c -2.082562,-0.60885 -1.952012,-0.8212 -3.956426,-2.81223 -3.795952,-3.7706 -6.28046,-7.14263 -8.115751,-15.04768 l -1.220292,-3.83798 1.653705,-2.45749 c 0.83123,-1.23526 1.72378,-2.70874 1.790329,-2.71026 0.06655,-0.002 0.23935,1.53585 0.479486,2.61432 1.097345,4.92823 4.877003,12.54555 7.63672,15.49984 0.888912,0.95158 5.734683,9.65096 5.314271,9.62574 -0.164057,-0.01 -2.411914,-0.53216 -3.582042,-0.87426 z"
       id="path9350"
       sodipodi:nodetypes="ssscscsscs" />
    <path
       style="font-variation-settings:normal;opacity:1;vector-effect:none;fill:#d95700;fill-opacity:1;stroke:#d95700;stroke-width:0.237678;stroke-linecap:butt;stroke-linejoin:miter;stroke-miterlimit:4;stroke-dasharray:none;stroke-dashoffset:0;stroke-opacity:1;-inkscape-stroke:none;stop-color:#000000;stop-opacity:1"
       d="m 249.23057,721.14422 c 0.3607,-0.90166 2.11433,-3.35256 4.27279,-5.26519 l 4.13969,-3.66822 2.76098,-8.91708 1.40458,-6.00788 1.3564,-2.9092 -3.03655,-3.92186 c -2.83815,-3.66563 -2.90692,-3.6296 -2.61169,-4.62548 0.20054,-0.67648 -0.0159,-4.9668 0.60163,-2.02943 l 3.10154,4.97389 2.39444,5.59262 -0.19404,1.84708 c -0.26054,2.48014 0.14246,5.05914 -0.98668,9.13541 -0.73181,2.64189 -2.61981,5.83582 -4.01273,10.29986 -0.69342,2.22229 -0.91505,4.51955 -1.00813,4.66578 -0.0931,0.14623 -0.99455,-0.0286 -1.48765,0.0506 -0.92024,0.14791 -7.56691,2.2993 -8.41872,2.62735 0.82001,-0.69921 0.84431,-1.2317 1.72414,-1.84826 z"
       id="path9352"
       sodipodi:nodetypes="csccccsscccssssscc" />
    <path
       style="font-variation-settings:normal;opacity:1;vector-effect:none;fill:#e8e8e8;fill-opacity:1;stroke:#e8e8e8;stroke-width:0.950712;stroke-linecap:butt;stroke-linejoin:miter;stroke-miterlimit:4;stroke-dasharray:none;stroke-dashoffset:0;stroke-opacity:1;-inkscape-stroke:none;stop-color:#000000;stop-opacity:1"
       d="m 241.00559,526.72798 c -2.87591,-0.73157 -7.35266,-2.2754 -9.94835,-3.43071 -4.39459,-1.956 -5.47432,-2.04597 -15.68675,-1.30715 -23.62808,1.70938 -26.01459,1.10209 -29.34511,-7.46744 -7.58345,-19.51247 -7.24111,-28.84288 1.70366,-46.43325 7.65122,-15.04653 8.91364,-19.71591 8.13694,-30.09651 -0.9101,-12.16361 -3.0389,-24.03262 -5.22526,-29.1332 -2.19259,-5.11509 -2.45887,-12.364 -0.94091,-25.61401 0.76983,-6.71969 1.74064,-10.0081 4.74576,-16.07525 2.07788,-4.19509 3.77796,-8.48652 3.77796,-9.53651 0,-1.04998 0.28143,-1.62765 0.62539,-1.28368 0.34397,0.34397 2.37611,-0.80899 4.51589,-2.56211 2.13977,-1.75312 7.74087,-5.64654 12.4469,-8.65202 4.70603,-3.00548 11.04421,-7.87766 14.08485,-10.82709 l 5.52845,-5.36257 -0.26667,-10.93319 c -0.2532,-10.38126 -0.14189,-11.12742 2.20498,-14.78065 2.29717,-3.57586 2.37361,-4.03459 1.08276,-6.49825 -1.29538,-2.47233 -1.22079,-2.88536 1.10797,-6.13502 1.37327,-1.91633 3.91145,-5.47267 5.64041,-7.90299 2.30321,-3.23752 3.49777,-4.19447 4.46858,-3.57973 0.72877,0.46147 2.46615,0.84558 3.86086,0.85359 2.16095,0.0124 2.77375,0.68214 4.1453,4.53044 0.88522,2.48374 1.76282,5.05066 1.95022,5.70427 0.86574,3.01944 2.21099,0.62354 2.81459,-5.0128 0.5932,-5.53923 0.15099,-8.25196 -4.14259,-25.41228 -2.64367,-10.5661 -4.6604,-19.35736 -4.48162,-19.53613 0.17877,-0.17878 5.08499,3.38941 10.9027,7.9293 8.79574,6.86381 11.01062,8.17158 13.14783,7.76302 2.10425,-0.40225 3.1338,0.16714 5.67919,3.14085 2.21309,2.5855 5.02369,4.36381 9.75341,6.17114 3.65443,1.39644 6.88637,2.93046 7.18208,3.40894 0.29572,0.47848 1.81277,0.86997 3.37121,0.86997 1.66337,0 4.87405,1.37416 7.77458,3.32749 2.96282,1.99528 6.10182,3.3275 7.84033,3.3275 1.59461,0 5.45071,0.9853 8.5691,2.18955 4.50294,1.73893 6.00546,2.86398 7.30074,5.4666 3.04356,6.11545 8.45889,23.99708 13.18517,43.53792 l 4.70982,19.4728 -2.04983,2.18194 c -1.61414,1.71818 -1.94102,2.94771 -1.5379,5.78487 0.28156,1.98162 0.81176,4.3464 1.17822,5.25508 0.49337,1.22335 -0.10314,2.08696 -2.29836,3.3275 -5.53431,3.12748 -5.94396,13.22639 -1.16001,28.59727 1.83725,5.90311 1.8369,5.94449 -0.0901,10.50554 l -1.93462,4.57909 2.61553,6.53778 c 3.17768,7.94296 2.97929,14.12905 -0.81359,25.36752 -2.18066,6.46142 -2.36365,7.92596 -1.49587,11.97228 0.78382,3.65478 0.68635,5.47865 -0.47026,8.80012 -0.80245,2.30441 -1.46522,4.93852 -1.47283,5.85358 -0.008,0.91506 -0.55984,1.66374 -1.22716,1.66374 -0.66733,0 -4.62467,0.42221 -8.79409,0.93823 -22.44729,2.77817 -29.28707,2.93401 -42.44918,0.96713 -6.96697,-1.04109 -14.05762,-1.89571 -15.75702,-1.89913 -2.32772,-0.005 -3.08981,-0.4241 -3.08981,-1.70046 0,-0.93183 -0.57148,-3.89735 -1.26996,-6.59005 l -1.26995,-4.8958 3.62426,-2.67941 c 3.15225,-2.33044 3.62719,-3.18196 3.64674,-6.53822 0.0124,-2.12235 -0.60566,-4.68927 -1.37337,-5.70427 -2.10997,-2.78965 -1.77221,-3.87192 1.92069,-6.15425 3.10187,-1.91706 3.25678,-2.21992 1.90143,-3.71757 -1.81679,-2.00756 -1.83315,-4.54015 -0.0495,-7.66039 1.89022,-3.30661 1.76617,-3.80285 -0.95071,-3.80285 -2.67052,0 -3.16235,-1.96736 -0.95072,-3.80285 1.99029,-1.6518 1.81155,-2.1506 -1.43207,-3.99631 -3.62177,-2.06089 -3.67754,-4.75439 -0.2136,-10.31592 5.69525,-9.14403 6.37299,-13.2481 2.59639,-15.72264 -3.03442,-1.98822 -2.98843,-2.66952 0.47535,-7.04291 3.47949,-4.39321 3.53215,-5.80295 0.41543,-11.12122 -2.35905,-4.02543 -2.40204,-4.38667 -1.34871,-11.33549 0.9781,-6.4526 0.81745,-9.11787 -0.47189,-7.82854 -0.24995,0.24995 -0.95648,3.82985 -1.57007,7.95533 -1.10101,7.40272 -1.08048,7.56582 1.56915,12.46402 l 2.68476,4.96315 -3.01611,3.43516 c -3.67376,4.18418 -3.80002,6.72495 -0.50513,10.16409 2.34309,2.44565 2.42798,2.83058 1.2695,5.75629 -0.68283,1.72446 -1.78925,3.78481 -2.45872,4.57855 -3.21122,3.80731 -4.92379,9.71629 -4.4215,15.25571 0.34219,3.77372 0.003,7.06021 -1.06652,10.32966 -1.02357,3.12938 -1.53103,7.68913 -1.46086,13.12643 0.0988,7.65936 -0.20668,9.11892 -3.78768,18.09528 -2.14235,5.37015 -3.89518,10.26251 -3.89518,10.87192 0,0.6094 0.81913,1.99122 1.82028,3.0707 1.79815,1.93883 1.78755,2.0344 -0.87133,7.85895 l -2.69162,5.89626 2.23733,6.463 c 3.92096,11.32656 5.96901,20.4956 5.15507,23.07899 -0.4156,1.31905 -1.03144,4.45756 -1.36855,6.97448 -0.41179,3.07446 -1.49026,5.55811 -3.28639,7.56832 -2.44849,2.74035 -3.22285,3.01264 -9.20215,3.23588 -3.59078,0.13406 -8.8817,-0.35483 -11.7576,-1.0864 z"
       id="path10151" />
    <path
       style="font-variation-settings:normal;opacity:1;vector-effect:none;fill:#e8e8e8;fill-opacity:1;stroke:#e8e8e8;stroke-width:0.903854;stroke-linecap:butt;stroke-linejoin:miter;stroke-miterlimit:4;stroke-dasharray:none;stroke-dashoffset:0;stroke-opacity:1;-inkscape-stroke:none;stop-color:#000000;stop-opacity:1"
       d="m 295.67155,509.54946 c -13.33648,-1.56767 -19.44338,-1.85427 -22.00388,-1.03268 -3.82323,1.22678 -5.3854,-1.72452 -4.85282,-9.16809 0.25739,-3.59726 0.95072,-7.02322 1.54075,-7.61325 1.47085,-1.47085 1.34545,-2.59392 -0.28963,-2.59392 -0.74934,0 -2.94185,-1.92748 -4.87225,-4.28329 l -3.50983,-4.28328 2.35423,-5.46152 2.35423,-5.46152 5.48874,-0.28866 c 3.01881,-0.15876 11.36316,0.61159 18.543,1.71189 13.5194,2.07183 22.27057,1.87893 44.22667,-0.97487 3.66024,-0.47575 8.15926,-0.87821 9.99781,-0.89436 l 3.34283,-0.0294 -0.0153,8.04663 c -0.0117,6.14987 -0.38005,8.41146 -1.5626,9.59437 -1.21644,1.21681 -1.44574,2.81249 -1.07243,7.4631 0.4791,5.96862 -0.77961,10.23672 -3.73492,12.66461 -1.37748,1.13165 -25.35437,4.13025 -31.56875,3.94806 -2.14939,-0.063 -8.614,-0.66775 -14.36581,-1.34387 z"
       id="path11017" />
    <path
       style="font-variation-settings:normal;opacity:1;vector-effect:none;fill:#e8e8e8;fill-opacity:1;stroke:#e8e8e8;stroke-width:0.903854;stroke-linecap:butt;stroke-linejoin:miter;stroke-miterlimit:4;stroke-dasharray:none;stroke-dashoffset:0;stroke-opacity:1;-inkscape-stroke:none;stop-color:#000000;stop-opacity:1"
       d="m 175.72293,518.73107 c -1.61914,-1.35224 -4.46913,-1.85083 -13.30998,-2.32844 -6.18733,-0.33427 -13.6027,-1.23336 -16.4786,-1.99799 -2.8759,-0.76463 -11.64896,-2.05188 -19.49567,-2.86054 -23.07499,-2.37807 -32.040141,-5.68563 -35.959841,-13.26685 -1.716787,-3.32049 -1.798806,-4.24443 -0.801763,-9.03177 0.610864,-2.93308 2.393764,-8.75544 3.961998,-12.93858 3.291037,-8.77856 3.423097,-10.138 1.299656,-13.37878 -1.473581,-2.24896 -1.448549,-2.49581 0.459021,-4.52632 l 2.017596,-2.14763 -3.311157,-3.12317 c -3.716759,-3.50574 -4.078748,-5.82026 -1.993786,-12.74806 0.923758,-3.06941 1.351369,-10.37963 1.431158,-24.46628 0.06379,-11.26191 0.529292,-20.86536 1.05941,-21.85589 1.183142,-2.21073 1.200094,-6.67242 0.03237,-8.51885 -0.605142,-0.95686 -0.300543,-2.34228 0.965271,-4.39042 2.524642,-4.08496 2.357359,-5.21673 -1.203623,-8.14336 -2.86523,-2.35481 -2.984251,-2.68379 -1.782995,-4.92836 1.921673,-3.59068 0.847296,-10.80261 -2.72932,-18.32099 -3.816531,-8.02271 -5.087212,-6.3671 -1.405923,1.83182 2.892643,6.44245 4.130967,14.26283 2.425372,15.31694 -1.952456,1.20669 -1.231127,6.08993 1.079302,7.30665 3.338602,1.75816 3.611288,2.91957 1.490984,6.35029 -1.628042,2.63422 -1.784101,3.59614 -0.898698,5.53938 1.431177,3.1411 1.351716,5.59957 -0.223233,6.90667 -0.712082,0.59097 -1.520265,3.56212 -1.79596,6.60254 -0.275696,3.04042 -1.404366,7.29826 -2.508155,9.46187 -1.671763,3.27692 -2.009014,5.6468 -2.019609,14.19186 -0.01095,8.83215 -0.393989,11.3534 -2.75564,18.13828 -2.246591,6.45432 -2.562279,8.35882 -1.744622,10.52503 0.738488,1.95648 0.644277,4.09531 -0.362001,8.21831 l -1.360299,5.57352 -5.676449,-0.21546 c -3.122047,-0.11851 -10.538405,0.21853 -16.480796,0.74896 -9.632459,0.85981 -11.849509,0.74856 -20.440316,-1.02573 -5.299783,-1.09458 -11.192068,-2.19204 -13.093966,-2.43878 -3.212209,-0.41676 -3.502364,-0.72611 -4.082226,-4.35236 -0.343327,-2.14705 -1.08567,-4.45973 -1.649653,-5.13929 -0.735466,-0.88618 -0.724042,-1.5987 0.0404,-2.5198 0.808115,-0.97372 0.564586,-2.19932 -1.00717,-5.06878 -2.031479,-3.70873 -2.044255,-3.96385 -0.637906,-12.73876 1.031256,-6.43452 1.168445,-9.82479 0.487524,-12.04791 -0.77915,-2.54383 -0.5626,-3.91561 1.218391,-7.7181 2.578839,-5.50592 2.167644,-7.45966 -2.530272,-12.02221 l -3.394625,-3.29681 4.892305,-4.43811 c 2.690768,-2.44095 4.892305,-5.21391 4.892305,-6.16211 0,-0.95399 -1.273874,-2.38275 -2.852137,-3.1989 -1.568676,-0.81119 -2.852137,-1.65181 -2.852137,-1.86802 0,-0.21622 1.711282,-2.37035 3.802849,-4.78697 3.648939,-4.21602 4.828189,-7.13034 2.885218,-7.13034 -1.891155,0 -8.000526,-6.30258 -9.668568,-9.97432 -2.319624,-5.10604 -2.256033,-5.57161 1.316754,-9.64036 2.616617,-2.97984 3.198587,-4.55011 3.800057,-10.25324 1.622021,-15.37999 1.859981,-24.74069 0.796521,-31.33303 -1.464902,-9.08088 -0.172211,-12.20644 7.674235,-18.55529 7.149501,-5.78493 27.086205,-16.26571 30.940893,-16.26571 1.534726,0 5.081864,-0.68049 7.882529,-1.5122 4.171637,-1.23884 6.406558,-2.82851 12.36362,-8.79408 3.999326,-4.00505 8.386831,-8.66959 9.750012,-10.36566 2.073674,-2.58007 2.838766,-2.94843 4.684081,-2.25515 1.589999,0.59735 3.234683,0.30755 5.892849,-1.03838 3.200255,-1.6204 3.867155,-1.68712 5.049085,-0.50519 1.18194,1.18194 2.13901,0.59421 7.24592,-4.44971 4.35397,-4.30027 8.68229,-7.25339 16.6445,-11.35624 5.91823,-3.04959 10.97437,-5.33074 11.23589,-5.06923 0.83922,0.83922 -7.0122,26.06846 -8.98255,28.86398 -1.58571,2.24979 -2.23248,6.31917 -3.90389,24.56292 -2.26573,24.73074 -2.28693,25.19387 -1.15326,25.19387 1.00206,0 9.20207,-23.22498 10.64174,-30.14073 0.72373,-3.47662 2.07064,-6.08554 4.5319,-8.7781 l 3.50209,-3.83123 2.52467,4.49988 c 2.03586,3.62863 3.13387,8.3655 5.67103,24.46485 l 3.14634,19.96496 3.92492,4.27821 c 2.15869,2.35301 5.89541,7.01171 8.3038,10.35268 2.82625,3.9206 5.99501,7.0014 8.93678,8.68867 2.50683,1.43782 8.31587,5.91524 12.90898,9.94983 9.50935,8.35301 9.28553,7.13817 3.50415,19.0198 -2.91545,5.99171 -3.90867,9.42142 -4.6804,16.16211 -1.51898,13.26733 -1.2555,21.56763 0.86649,27.29732 2.66097,7.18499 3.65213,12.29989 4.8243,24.89583 1.26057,13.54586 0.54563,16.59745 -7.67493,32.75919 -8.4771,16.66608 -9.22771,26.50478 -3.34794,43.88387 1.30593,3.86002 2.28119,7.08914 2.16725,7.17583 -1.20465,0.91652 -4.62636,2.30989 -5.61128,2.28498 -0.68799,-0.0174 -2.17802,-0.80594 -3.31117,-1.75233 z"
       id="path11088" />
    <path
       style="font-variation-settings:normal;opacity:1;vector-effect:none;fill:#e8e8e8;fill-opacity:1;stroke:#e8e8e8;stroke-width:0.903854;stroke-linecap:butt;stroke-linejoin:miter;stroke-miterlimit:4;stroke-dasharray:none;stroke-dashoffset:0;stroke-opacity:1;-inkscape-stroke:none;stop-color:#000000;stop-opacity:1"
       d="m 32.799577,505.62097 c -3.398797,-0.14685 -10.085942,-0.96658 -14.860323,-1.82162 l -8.6806928,-1.55461 -2.171251,-6.37762 c -2.0733233,-6.08998 -2.0998772,-6.52069 -0.588753,-9.54981 1.9519767,-3.91283 1.9813651,-5.16835 0.1564294,-6.68292 -2.0807932,-1.7269 -1.8045939,-3.03114 1.9913842,-9.40347 3.2758532,-5.49919 5.9110712,-7.56881 7.9963242,-6.28005 0.535124,0.33073 3.212831,0.74114 5.950459,0.91204 2.737628,0.17089 9.0418,1.2051 14.009273,2.29823 8.419073,1.85269 10.031426,1.91463 23.767809,0.91299 17.408233,-1.26938 21.921373,-0.53529 24.236817,3.94229 1.945607,3.76239 1.799627,7.89044 -0.425868,12.04274 -1.985579,3.70466 -1.507785,6.06964 1.574753,7.79472 1.384844,0.775 1.446252,1.37432 0.466886,4.5566 -1.970789,6.40374 -1.931644,6.38404 -14.149211,7.11995 -6.175411,0.37197 -15.078406,1.12942 -19.784432,1.68322 -4.706026,0.5538 -9.625963,0.93208 -10.933193,0.84062 -1.307229,-0.0915 -5.157614,-0.28645 -8.556411,-0.4333 z"
       id="path11090" />
    <path
       style="font-variation-settings:normal;opacity:1;vector-effect:none;fill:#e8e8e8;fill-opacity:1;stroke:#e8e8e8;stroke-width:0.903854;stroke-linecap:butt;stroke-linejoin:miter;stroke-miterlimit:4;stroke-dasharray:none;stroke-dashoffset:0;stroke-opacity:1;-inkscape-stroke:none;stop-color:#000000;stop-opacity:1"
       d="m 190.61783,345.4029 c -2.8759,-2.60645 -8.05164,-6.60537 -11.50164,-8.88649 -4.62268,-3.05649 -7.91426,-6.34824 -12.51306,-12.5137 -3.43219,-4.60141 -7.0354,-9.02651 -8.00714,-9.83356 -1.39245,-1.15645 -2.434,-5.68895 -4.91559,-21.39103 -2.68721,-17.00307 -3.56396,-20.65238 -5.98105,-24.89482 -1.55775,-2.73413 -3.21343,-5.20672 -3.67928,-5.49463 -0.46586,-0.28791 -2.68569,1.46981 -4.93296,3.90605 -3.08265,3.34187 -4.38192,5.74158 -5.29128,9.77284 -1.56543,6.93972 -5.99796,20.3233 -6.54855,19.77271 -0.23498,-0.23498 0.29791,-8.06983 1.18419,-17.4108 1.25477,-13.22465 2.00641,-17.54786 3.39606,-19.53315 0.98155,-1.40227 3.8695,-9.31695 6.41765,-17.58818 6.93027,-22.49541 12.05454,-35.52951 15.20797,-38.68294 l 2.72871,-2.7287 1.16005,6.87759 c 1.32315,7.84449 0.87389,12.05149 -1.97459,18.49096 l -2.00092,4.52341 5.27661,12.97659 c 5.44082,13.38037 16.76342,50.31514 16.76342,54.6829 0,1.35572 2.52064,7.71405 5.60143,14.12961 5.09925,10.6189 15.77988,37.68659 15.11534,38.30647 -0.15205,0.14183 -2.62946,-1.87468 -5.50537,-4.48113 z"
       id="path11092" />
    <path
       style="font-variation-settings:normal;opacity:1;vector-effect:none;fill:#e8e8e8;fill-opacity:1;stroke:#e8e8e8;stroke-width:0.903854;stroke-linecap:butt;stroke-linejoin:miter;stroke-miterlimit:4;stroke-dasharray:none;stroke-dashoffset:0;stroke-opacity:1;-inkscape-stroke:none;stop-color:#000000;stop-opacity:1"
       d="m 202.02638,350.63234 c 0,-1.17598 10.35037,-21.46912 14.93994,-29.29156 2.14753,-3.66024 5.43151,-11.57492 7.29772,-17.58818 1.8689,-6.02195 4.70589,-12.85498 6.31558,-15.21139 6.61409,-9.68237 7.76294,-13.00295 8.70725,-25.16701 0.92168,-11.87268 0.48784,-20.48527 -1.31684,-26.142 -0.67146,-2.10466 -3.71574,-5.80371 -8.41327,-10.22281 -9.54818,-8.98224 -11.3484,-13.22769 -8.91268,-21.01869 0.2536,-0.81117 2.69653,0.82407 6.81326,4.56062 3.52985,3.20386 9.26489,7.71249 12.74455,10.01916 5.93796,3.93629 6.44686,4.56142 8.28343,10.17542 3.28013,10.02663 12.48795,48.02222 12.44321,51.34623 l -0.042,3.12158 -1.88212,-3.56517 c -1.47866,-2.80093 -2.4433,-3.56517 -4.5,-3.56517 -1.43984,0 -3.53186,-0.64017 -4.64894,-1.4226 -1.93705,-1.35677 -2.21069,-1.16976 -5.91247,4.04052 -9.63976,13.56803 -9.09664,12.49252 -7.9041,15.65192 0.94965,2.51589 0.79388,3.41928 -1.17483,6.81367 -2.12028,3.6557 -2.23455,4.57786 -1.7365,14.01315 l 0.53314,10.09994 -4.01799,4.359 c -2.2099,2.39746 -9.00675,7.69235 -15.10412,11.76645 -12.44068,8.31253 -12.5122,8.35382 -12.5122,7.22692 z"
       id="path11094" />
    <path
       style="font-variation-settings:normal;opacity:1;vector-effect:none;fill:#d95700;fill-opacity:1;stroke:#d95700;stroke-width:0.639121;stroke-linecap:butt;stroke-linejoin:miter;stroke-miterlimit:4;stroke-dasharray:none;stroke-dashoffset:0;stroke-opacity:1;-inkscape-stroke:none;stop-color:#000000;stop-opacity:1"
       d="m 157.76669,235.39895 -2.21985,-5.50268 1.98129,-4.64436 1.98129,-4.64436 0.49445,9.89114 c 0.27196,5.44013 0.37931,10.0063 0.23856,10.14704 -0.14074,0.14075 -1.25483,-2.22031 -2.47574,-5.24678 z"
       id="path11096" />
    <path
       style="font-variation-settings:normal;opacity:1;vector-effect:none;fill:#aa8800;fill-opacity:1;stroke:#aa8800;stroke-width:0.639121;stroke-linecap:butt;stroke-linejoin:miter;stroke-miterlimit:4;stroke-dasharray:none;stroke-dashoffset:0;stroke-opacity:1;-inkscape-stroke:none;stop-color:#000000;stop-opacity:1"
       d="m 181.5089,539.11481 c -4.43689,-0.48088 -8.46544,-0.89688 -8.95235,-0.92444 -0.70129,-0.0397 -0.79964,-1.55202 -0.47323,-7.27685 0.22662,-3.97471 0.56944,-8.2438 0.7618,-9.48687 l 0.34976,-2.26012 1.51132,1.4198 c 1.81798,1.70791 5.43439,1.86913 8.95266,0.3991 2.2838,-0.95423 2.53477,-0.93443 3.85305,0.30404 1.79167,1.68319 5.88476,3.40569 8.09275,3.40569 1.94823,0 2.00166,0.41969 1.26244,9.91576 l -0.43174,5.54611 -3.4297,-0.0839 c -1.88634,-0.0462 -7.05988,-0.4774 -11.49676,-0.95828 z"
       id="path12619" />
    <path
       style="font-variation-settings:normal;opacity:1;vector-effect:none;fill:#552200;fill-opacity:1;stroke:#552200;stroke-width:0.639121;stroke-linecap:butt;stroke-linejoin:miter;stroke-miterlimit:4;stroke-dasharray:none;stroke-dashoffset:0;stroke-opacity:1;-inkscape-stroke:none;stop-color:#000000;stop-opacity:1"
       d="m 250.41505,547.15891 c -7.83197,-1.62194 -26.95407,-4.21585 -39.67645,-5.3821 l -12.45012,-1.1413 0.24443,-7.12985 c 0.14428,-4.20864 0.56292,-7.43236 1.02178,-7.86818 0.90492,-0.85948 14.17655,-2.28683 21.26313,-2.28683 3.94973,0 6.09709,0.45815 11.32496,2.41621 8.38359,3.14002 15.99146,4.56996 21.76736,4.09128 2.4769,-0.20527 5.07684,-0.68009 5.77764,-1.05514 1.21352,-0.64946 1.26841,-0.37147 1.1532,5.84025 -0.0665,3.58719 -0.49831,8.11036 -0.9595,10.0515 -0.79996,3.36704 -0.93643,3.52566 -2.96765,3.44921 -1.17102,-0.0441 -4.09547,-0.48735 -6.49878,-0.98505 z"
       id="path12690" />
    <path
       style="font-variation-settings:normal;opacity:1;vector-effect:none;fill:#552200;fill-opacity:1;stroke:#552200;stroke-width:0.639121;stroke-linecap:butt;stroke-linejoin:miter;stroke-miterlimit:4;stroke-dasharray:none;stroke-dashoffset:0;stroke-opacity:1;-inkscape-stroke:none;stop-color:#000000;stop-opacity:1"
       d="m 162.34962,537.0151 c -3.88227,-0.50471 -15.68035,-2.27267 -26.21795,-3.9288 -26.3462,-4.14068 -33.54376,-5.02986 -40.714443,-5.02986 -4.704279,0 -6.380868,-0.2435 -7.025583,-1.02033 -1.248723,-1.50462 -0.45,-6.46577 2.081505,-12.92897 l 2.172297,-5.5461 3.088032,-0.0796 c 1.698417,-0.0438 3.390547,0.008 3.760287,0.1156 7.109905,2.06463 14.038475,3.38892 22.520545,4.30447 15.26339,1.64752 18.47934,2.10651 25.5457,3.64596 3.51253,0.76523 10.26538,1.59659 15.00631,1.84747 l 8.6199,0.45614 -0.46235,9.1404 c -0.25428,5.02723 -0.65432,9.32061 -0.88895,9.54085 -0.23464,0.22024 -3.60302,-0.0125 -7.4853,-0.51722 z"
       id="path12830" />
    <path
       style="font-variation-settings:normal;opacity:1;vector-effect:none;fill:#f3f3f3;fill-opacity:1;stroke:#e8e8e8;stroke-width:0.0399451;stroke-linecap:butt;stroke-linejoin:miter;stroke-miterlimit:4;stroke-dasharray:none;stroke-dashoffset:0;stroke-opacity:1;-inkscape-stroke:none;stop-color:#000000;stop-opacity:1"
       d="m 159.55556,120.65755 c -0.74712,-0.30422 -0.81348,-0.34698 -1.93273,-1.24537 -1.56959,-1.25986 -2.79793,-2.50252 -3.82374,-3.86832 -0.51097,-0.68032 -0.98927,-1.41312 -1.9745,-3.02515 -0.42371,-0.69326 -0.93912,-1.52185 -1.14535,-1.84131 -0.20623,-0.31946 -0.368,-0.58779 -0.35949,-0.59631 0.009,-0.009 0.38368,0.0202 0.83371,0.0639 0.45002,0.0436 1.65959,0.1467 2.68793,0.229 4.48717,0.35915 5.57008,0.46276 7.01667,0.67135 1.00768,0.14531 2.23516,0.36938 2.19686,0.40103 -0.0182,0.015 -0.14524,0.0613 -0.28236,0.10275 -1.27941,0.38713 -2.53884,1.4924 -3.20271,2.81067 -0.20574,0.40854 -0.45687,1.1913 -0.54163,1.68829 -0.14725,0.86331 -0.0791,1.94974 0.17527,2.79406 0.19315,0.64112 0.57803,1.40938 0.91564,1.82769 0.168,0.20816 0.20741,0.27355 0.16369,0.27157 -0.0187,-8.5e-4 -0.34596,-0.12857 -0.72726,-0.28382 z"
       id="path13185" />
    <path
       style="font-variation-settings:normal;opacity:1;vector-effect:none;fill:#f3f3f3;fill-opacity:1;stroke:#e8e8e8;stroke-width:0.0798901;stroke-linecap:butt;stroke-linejoin:miter;stroke-miterlimit:4;stroke-dasharray:none;stroke-dashoffset:0;stroke-opacity:1;-inkscape-stroke:none;stop-color:#000000;stop-opacity:1"
       d="m 170.28049,124.44812 c -1.13872,-0.17745 -2.44224,-0.52261 -3.85532,-1.02085 -0.71637,-0.25259 -1.37812,-0.48236 -1.47056,-0.51062 -0.11129,-0.034 0.0306,-0.0879 0.42016,-0.15945 0.96485,-0.17727 1.8967,-0.69416 2.69005,-1.49213 0.74612,-0.75047 1.1549,-1.43579 1.48282,-2.48598 0.16429,-0.52616 0.19679,-0.8121 0.19679,-1.73141 0,-1.09077 0.001,-1.09884 0.14916,-0.85582 0.36105,0.59382 1.17129,2.31084 1.63725,3.46956 0.47421,1.17926 1.70091,4.66927 1.70091,4.83915 0,0.11489 -2.11909,0.0772 -2.95126,-0.0524 z"
       id="path13189" />
    <path
       style="font-variation-settings:normal;opacity:1;vector-effect:none;fill:#f3f3f3;fill-opacity:1;stroke:#e8e8e8;stroke-width:0.0798901;stroke-linecap:butt;stroke-linejoin:miter;stroke-miterlimit:4;stroke-dasharray:none;stroke-dashoffset:0;stroke-opacity:1;-inkscape-stroke:none;stop-color:#000000;stop-opacity:1"
       d="m 207.64114,123.66894 c 0.82046,-2.41935 1.34151,-3.72569 2.10122,-5.268 0.62745,-1.2738 0.95388,-1.81819 0.83607,-1.39434 -0.11793,0.4243 -0.0482,1.89128 0.12076,2.54017 0.54909,2.10892 2.23309,3.776 4.1767,4.13471 l 0.57102,0.10539 -0.79287,0.30249 c -2.48096,0.94652 -4.17226,1.32577 -6.19198,1.38846 l -1.44961,0.045 z"
       id="path13191" />
    <path
       style="font-variation-settings:normal;opacity:1;fill:#f2f2f2;fill-opacity:1;stroke:#e8e8e8;stroke-width:0.0798901;stroke-linecap:butt;stroke-linejoin:miter;stroke-miterlimit:4;stroke-dasharray:none;stroke-dashoffset:0;stroke-opacity:1;stop-color:#000000;stop-opacity:1"
       d="m 220.12155,121.75635 c 0,-0.0263 0.116,-0.21648 0.25778,-0.42255 0.64887,-0.9431 0.94982,-1.99038 0.95147,-3.311 10e-4,-1.1477 -0.13703,-1.75536 -0.62838,-2.75782 -0.56963,-1.16217 -1.78511,-2.30039 -2.86678,-2.68456 -0.22171,-0.0787 -0.40311,-0.16597 -0.40311,-0.19383 0,-0.13665 3.25932,-0.58274 5.75619,-0.78783 0.87813,-0.0721 2.52305,-0.20714 3.65538,-0.30003 1.13233,-0.0929 2.29431,-0.19241 2.58217,-0.22115 l 0.52338,-0.0523 -1.13964,1.83912 c -2.32352,3.74959 -3.08605,4.74535 -4.86501,6.35309 -1.39162,1.25769 -2.46658,2.05034 -3.16849,2.33636 -0.67886,0.27664 -0.65496,0.26925 -0.65496,0.20247 z"
       id="path13471" />
    <path
       style="font-variation-settings:normal;opacity:1;vector-effect:none;fill:#15649c;fill-opacity:1;stroke:#15649c;stroke-width:0.0399451;stroke-linecap:butt;stroke-linejoin:miter;stroke-miterlimit:4;stroke-dasharray:none;stroke-dashoffset:0;stroke-opacity:1;-inkscape-stroke:none;stop-color:#000000;stop-opacity:1"
       d="m 163.68717,121.72387 c -1.84343,-0.35201 -3.26707,-1.84595 -3.60484,-3.78283 -0.30991,-1.7772 0.39393,-3.66593 1.75096,-4.69862 0.83777,-0.63753 1.68794,-0.90508 2.73221,-0.85982 0.79235,0.0343 1.53938,0.29486 2.1958,0.76574 0.31964,0.22929 0.87998,0.80723 1.1005,1.13504 1.10838,1.6477 1.12804,3.81595 0.0497,5.48452 -0.60842,0.94147 -1.53289,1.61717 -2.59239,1.89479 -0.41936,0.10988 -1.21978,0.13989 -1.63195,0.0612 z m 1.2657,-2.27384 c 0.74174,-0.1932 1.32204,-0.74257 1.60784,-1.52212 0.13874,-0.37844 0.1743,-1.00554 0.0798,-1.4065 -0.1952,-0.8278 -0.81911,-1.52277 -1.57779,-1.75748 -0.32085,-0.0993 -0.87554,-0.1165 -1.20048,-0.0373 -0.5793,0.14119 -1.17358,0.6118 -1.45646,1.15337 -0.22312,0.42717 -0.29667,0.7226 -0.29703,1.19306 -5.6e-4,0.74927 0.20815,1.26355 0.71931,1.77241 0.47396,0.47184 0.91074,0.658 1.56105,0.66533 0.17424,0.002 0.42795,-0.0254 0.5638,-0.0608 z"
       id="path13473" />
    <path
       style="font-variation-settings:normal;opacity:1;vector-effect:none;fill:#15649c;fill-opacity:1;stroke:#15649c;stroke-width:0.15978;stroke-linecap:butt;stroke-linejoin:miter;stroke-miterlimit:4;stroke-dasharray:none;stroke-dashoffset:0;stroke-opacity:1;-inkscape-stroke:none;stop-color:#000000;stop-opacity:1"
       d="m 214.23567,122.23766 c -0.39485,-0.19146 -1.01311,-0.68348 -1.3739,-1.09336 -2.4373,-2.76891 -0.86995,-7.31212 2.6671,-7.73104 2.94015,-0.34821 5.36918,2.83224 4.48527,5.8728 -0.77066,2.65097 -3.51139,4.05091 -5.77847,2.9516 z m 3.04781,-2.20601 c 1.36336,-0.95246 1.21436,-3.24781 -0.26957,-4.15257 -1.97161,-1.20211 -4.24514,1.12942 -3.21605,3.29808 0.62849,1.32444 2.24551,1.72085 3.48562,0.85449 z"
       id="path13475" />
    <path
       style="font-variation-settings:normal;opacity:1;fill:#000000;fill-opacity:1;stroke:#000000;stroke-width:1;stroke-linecap:butt;stroke-linejoin:miter;stroke-miterlimit:4;stroke-dasharray:none;stroke-dashoffset:0;stroke-opacity:1;stop-color:#000000;stop-opacity:1"
       d="m 163.85517,118.12419 c -0.56176,-0.35983 -0.70001,-1.26702 -0.27537,-1.80687 0.53908,-0.68533 1.51326,-0.5052 1.8331,0.33896 0.13541,0.35736 0.11756,0.57535 -0.0806,0.98473 -0.30724,0.63467 -0.92509,0.83678 -1.47711,0.48318 z"
       id="path14384" />
    <path
       style="font-variation-settings:normal;opacity:1;fill:#000000;fill-opacity:1;stroke:#000000;stroke-width:1;stroke-linecap:butt;stroke-linejoin:miter;stroke-miterlimit:4;stroke-dasharray:none;stroke-dashoffset:0;stroke-opacity:1;stop-color:#000000;stop-opacity:1"
       d="m 215.71176,119.22024 c -0.77059,-0.24109 -1.11957,-1.08415 -0.74701,-1.80462 0.15774,-0.30504 0.61008,-0.60961 0.90608,-0.61009 1.0547,-0.002 1.47886,1.63223 0.58285,2.24525 -0.20829,0.14251 -0.56653,0.22433 -0.74192,0.16946 z"
       id="path14386" />
    <path
       style="font-variation-settings:normal;opacity:1;vector-effect:none;fill:#ff7f2a;fill-opacity:1;stroke:#ff7f2a;stroke-width:0.336127;stroke-linecap:butt;stroke-linejoin:miter;stroke-miterlimit:4;stroke-dasharray:none;stroke-dashoffset:0;stroke-opacity:1;-inkscape-stroke:none;stop-color:#000000;stop-opacity:1"
       d="m 83.496637,702.02166 c -2.470206,0 -3.157376,-2.53543 -3.887018,-4.63273 -0.358458,-1.03036 0.615127,-0.2337 -0.744797,-2.28855 -0.314818,-0.47569 5.877651,-1.58331 6.528879,-1.58331 0.503502,0 1.087162,1.31832 1.79704,3.60986 0.408041,1.31719 0.532023,2.06667 0.07142,3.16904 -0.60837,1.45603 -1.64944,2.74605 -2.22108,2.74261 -0.372203,0.37623 -2.225122,-1.01692 -1.544448,-1.01692 z"
       id="path21005"
       sodipodi:nodetypes="sssssscss" />
    <path
       style="font-variation-settings:normal;opacity:1;vector-effect:none;fill:#ff7f2a;fill-opacity:0.952941;stroke:#fd7d28;stroke-width:0.336127;stroke-linecap:butt;stroke-linejoin:miter;stroke-miterlimit:4;stroke-dasharray:none;stroke-dashoffset:0;stroke-opacity:1;-inkscape-stroke:none;stop-color:#000000;stop-opacity:1"
       d="m 244.32402,702.81582 c 0.33458,-6.90963 -0.61247,-5.36684 3.5491,-6.38035 l 3.06172,-0.74565 -0.21475,1.81939 c -0.0723,0.61273 0.37159,2.25434 0.032,3.34702 -0.21499,0.6918 -1.30573,0.7891 -1.25123,1.45869 0.35475,4.35845 -1.46983,4.00351 -4.05029,4.46 l -1.32967,0.23522 z"
       id="path21940"
       sodipodi:nodetypes="sscsssscs" />
    <path
       style="font-variation-settings:normal;opacity:1;vector-effect:none;fill:#280b0b;fill-opacity:1;stroke:#280b0b;stroke-width:0.336127;stroke-linecap:butt;stroke-linejoin:miter;stroke-miterlimit:4;stroke-dasharray:none;stroke-dashoffset:0;stroke-opacity:1;-inkscape-stroke:none;stop-color:#000000;stop-opacity:1"
       d="m 127.54181,133.04564 c 0.61191,-1.59463 2.42012,-7.79776 2.30623,-7.91164 -0.0736,-0.0736 -1.39141,0.889 -2.92847,2.13912 -1.53706,1.25013 -2.82449,2.24021 -2.86097,2.20019 -0.0365,-0.04 0.30497,-2.52009 0.75877,-5.51126 1.48711,-9.80204 1.55949,-14.18372 0.23432,-14.18372 -0.41613,0 -0.86651,0.68858 -1.44533,2.20971 -2.29467,6.0304 -6.09749,9.89884 -10.82283,11.00958 -0.58336,0.13712 -1.36828,0.3413 -1.74427,0.45372 -0.55406,0.16568 -0.47364,-0.0607 0.42442,-1.19459 2.76666,-3.49319 5.285,-9.61797 6.85003,-16.65973 l 0.81143,-3.65096 -0.97078,-1.65234 c -1.85566,-3.158476 -4.58926,-8.741232 -5.74377,-11.730321 -2.66086,-6.889101 -2.92479,-12.833324 -0.87902,-19.797265 0.5998,-2.041771 1.18726,-4.60761 1.30547,-5.701861 l 0.21493,-1.989551 -1.97844,-2.332173 c -4.77283,-5.626173 -4.52494,-7.871378 1.18808,-10.760662 1.68619,-0.852768 3.87565,-1.654761 5.00636,-1.833818 3.89724,-0.617156 8.89372,-3.858703 11.20143,-7.267106 l 1.19019,-1.757857 -0.17735,-4.522595 c -0.21606,-5.510016 0.0371,-6.800995 1.61887,-8.254014 2.07977,-1.910539 6.03017,-2.347712 12.26479,-1.35729 6.69307,1.06325 6.99644,1.069018 7.97301,0.151578 1.07451,-1.009455 1.69419,-3.016116 2.47255,-8.006746 0.77884,-4.99369 1.07519,-5.5262971 3.60316,-6.4756105 5.45507,-2.0485149 14.5948,-4.2507353 17.54498,-4.227469 2.13212,0.016815 4.57528,0.9787146 8.21083,3.2326878 3.91504,2.4272547 5.85886,3.1197307 8.75725,3.1197307 3.46814,0 5.50678,-0.8092773 10.42273,-4.1375055 2.46308,-1.6675671 5.51247,-3.526877 6.77642,-4.1317996 2.04704,-0.9797057 2.64571,-1.0996847 5.48008,-1.098261 2.41282,0.00121 3.78021,0.20418 5.65685,0.8396705 3.99319,1.3522208 7.74881,3.461216 9.50277,5.3363328 1.85857,1.9869672 2.45977,3.7555788 3.0629,9.0105078 0.97527,8.497262 3.28121,10.444511 12.36841,10.444511 3.98899,0 4.64608,0.08881 6.03462,0.815649 2.1738,1.137878 3.62166,3.460347 5.09047,8.165479 1.83549,5.87975 2.31154,6.499077 9.726,12.653292 5.57141,4.62444 6.48863,9.212781 3.84751,19.246906 -2.56497,9.744783 -3.36553,15.69777 -3.03677,22.581508 0.24929,5.219756 0.99452,8.98214 2.55398,12.894082 0.65657,1.64703 1.16248,3.02142 1.12423,3.05422 -0.0382,0.0328 -1.304,-0.42503 -2.81278,-1.01738 -1.50878,-0.59236 -2.83417,-0.98608 -2.94531,-0.87493 -0.11114,0.11114 -0.45911,3.23864 -0.77327,6.95001 -0.31415,3.71136 -0.6593,6.74749 -0.76699,6.74693 -0.1077,-7.1e-4 -0.67311,-0.91316 -1.25647,-2.02801 -0.58606,-1.12001 -1.57061,-2.36656 -2.20034,-2.78587 -1.32591,-0.88288 -3.78662,-1.33145 -5.51999,-1.00627 -1.06313,0.19945 -1.23947,0.38749 -1.42704,1.52176 -0.66591,4.02694 0.22657,11.30559 1.74667,14.24515 0.91433,1.76811 0.31673,1.55384 -1.28264,-0.45988 -1.43254,-1.80367 -3.14996,-4.97178 -3.15724,-5.82412 -0.007,-0.77084 -1.19128,-0.89368 -1.75669,-0.18215 -0.29968,0.37711 -2.0479,2.45804 -3.88496,4.62428 l -3.34009,3.93862 -0.55695,-1.50773 c -0.67683,-1.83227 -1.67805,-2.29419 -3.75843,-1.734 -2.00767,0.54061 -3.63753,1.71562 -5.08362,3.66494 -1.20483,1.6241 -1.23886,1.6419 -1.66685,0.87169 -0.66201,-1.19136 -0.58991,-1.43856 1.16894,-4.00762 2.4443,-3.57027 2.52617,-3.98171 1.37585,-6.9137 -1.20641,-3.07493 -1.08596,-3.40414 2.26335,-6.18582 4.57352,-3.79841 4.93137,-5.89407 1.66526,-9.75209 -2.25165,-2.65971 -2.69272,-3.44109 -2.69272,-4.770285 0,-1.491337 1.4897,-4.213002 3.67028,-6.70555 3.58643,-4.099533 3.26786,-5.756733 -3.0645,-15.941567 -3.24025,-5.211546 -4.1515,-5.211762 -3.28256,-7.07e-4 0.2662,1.596407 0.24011,1.672516 -0.64986,1.895884 -1.27165,0.319167 -2.33022,1.775641 -2.33022,3.206132 0,1.511084 -0.36276,1.498515 -1.73114,-0.05998 -1.28287,-1.461109 -1.20742,-1.111858 -1.24474,-5.762029 -0.0268,-3.342458 -0.0969,-3.707955 -0.82482,-4.299312 -0.98319,-0.798797 -0.99988,-1.773332 -0.0763,-4.455084 1.14394,-3.321559 1.81754,-6.587251 1.43719,-6.967604 -0.53876,-0.538758 -1.82916,-0.03093 -4.02388,1.583531 -1.83597,1.35056 -2.02225,1.604103 -1.82807,2.488181 0.2045,0.931026 0.14894,0.984321 -1.02631,0.984321 -3.57129,0 -4.24184,1.144792 -4.47052,7.632224 l -0.17678,5.015116 -2.10577,-4.464396 c -1.93523,-4.102818 -2.10403,-4.655634 -2.08416,-6.825543 0.016,-1.747922 0.24152,-2.804689 0.86834,-4.068979 0.77385,-1.560856 0.97572,-1.725057 2.34561,-1.907894 2.6832,-0.358118 4.68904,-3.199669 4.77009,-6.75748 0.0365,-1.601219 -0.0801,-1.913898 -0.99251,-2.661932 -2.38133,-1.952353 -2.78598,-2.048099 -8.63523,-2.043266 -4.0748,0.0035 -6.76291,0.217227 -10.48268,0.833972 l -5.00261,0.82944 -2.30637,-0.922689 c -3.96986,-1.588194 -6.51262,-2.091131 -10.49261,-2.075341 -6.96442,0.02761 -11.43746,2.671258 -10.83205,6.401915 0.11415,0.703433 1.24002,2.793089 2.57471,4.778748 2.88089,4.285982 3.26909,5.309781 3.30299,8.710979 0.0145,1.458408 0.17725,3.81301 0.36158,5.232445 0.4131,3.181097 -0.002,5.382713 -1.61162,8.556137 l -1.16594,2.298097 0.19605,-4.419417 c 0.32533,-7.333695 -0.74392,-10.051467 -5.0161,-12.749588 -1.23066,-0.777231 -2.32593,-1.643444 -2.43394,-1.924914 -0.37471,-0.976472 -0.91956,-6.372026 -0.83762,-8.294766 0.11348,-2.662844 -0.72056,-2.8424 -2.2207,-0.478082 -2.46067,3.87818 -3.21769,9.733954 -1.71112,13.236056 l 0.75878,1.763828 -0.7729,0.541358 c -1.4622,1.024166 -2.15887,2.031366 -2.15887,3.121137 0,1.575982 0.89644,2.629939 3.04515,3.580199 1.31291,0.580633 1.94086,1.079023 2.06422,1.638348 1.13556,5.148498 0.79039,7.18033 -0.68996,4.061417 -0.54094,-1.139697 -1.1589,-1.731896 -2.62969,-2.520048 -1.73233,-0.928304 -2.3554,-1.05076 -6.29615,-1.237436 -4.10598,-0.194504 -4.41338,-0.260007 -5.02449,-1.070641 -0.80364,-1.066031 -1.4011,-3.00495 -1.67188,-5.425719 -0.3366,-3.009199 -0.58282,-3.107841 -2.04642,-0.819866 -1.86938,2.92231 -2.72954,5.591214 -2.75609,8.551587 -0.0204,2.271888 0.13361,2.837047 1.66639,6.116064 1.59492,3.411956 1.6803,3.744614 1.53538,5.98208 -0.11551,1.783281 -0.52927,3.235467 -1.67304,5.871869 l -1.51958,3.50265 0.17372,3.74519 c 0.1844,3.97551 1.22826,7.63921 2.92748,10.27475 0.82688,1.28251 4.4672,4.92668 6.35422,6.36093 l 1.06066,0.80617 -2.12132,-0.14898 c -1.69692,-0.11918 -2.53454,-0.41388 -4.1867,-1.47301 -1.63046,-1.04521 -2.16971,-1.23742 -2.56085,-0.91281 -0.41095,0.34106 -0.1855,0.80075 1.32167,2.69485 2.39163,3.00559 3.12778,4.51952 3.12778,6.43239 v 1.57803 l -1.62167,-2.09473 c -2.14943,-2.77643 -6.82783,-7.5748 -7.38542,-7.5748 -0.24353,0 -0.71328,0.70828 -1.04389,1.57396 -0.83724,2.1923 -3.94662,4.94383 -7.97242,7.0549 -2.01741,1.0579 -3.2283,1.52736 -3.10399,1.20342 z"
       id="path23013" />
    <path
       style="font-variation-settings:normal;opacity:1;vector-effect:none;fill:#280b0b;fill-opacity:1;stroke:#280b0b;stroke-width:0.672255;stroke-linecap:butt;stroke-linejoin:miter;stroke-miterlimit:4;stroke-dasharray:none;stroke-dashoffset:0;stroke-opacity:1;-inkscape-stroke:none;stop-color:#000000;stop-opacity:1"
       d="m 204.12004,104.98263 c -2.81596,-0.63262 -6.14447,-3.64367 -7.1194,-6.440364 -0.38772,-1.112204 -0.57806,-2.022191 -0.42298,-2.022191 0.15508,0 1.86298,0.339066 3.79532,0.753479 5.23968,1.123712 10.53394,-0.102795 16.9656,-3.930375 2.94545,-1.752886 5.76047,-3.187065 6.25559,-3.187065 0.87577,0 -3.84098,6.808197 -7.5145,10.846506 -3.20355,3.52167 -7.55458,4.96963 -11.95963,3.98001 z"
       id="path23015" />
    <path
       style="font-variation-settings:normal;opacity:1;vector-effect:none;fill:#280b0b;fill-opacity:1;stroke:#280b0b;stroke-width:0.672255;stroke-linecap:butt;stroke-linejoin:miter;stroke-miterlimit:4;stroke-dasharray:none;stroke-dashoffset:0;stroke-opacity:1;-inkscape-stroke:none;stop-color:#000000;stop-opacity:1"
       d="m 169.20466,103.62696 c -0.9638,-0.75812 -2.98465,-3.16764 -4.49079,-5.354495 -1.50615,-2.18685 -4.02203,-4.938116 -5.59086,-6.113923 l -2.85241,-2.13783 2.47487,0.478536 c 1.36118,0.263195 4.17392,1.624831 6.25052,3.025858 3.7468,2.527861 3.83457,2.54768 11.48891,2.594368 4.2423,0.02588 7.71398,0.219445 7.71484,0.430153 0.004,1.01008 -6.31334,6.394203 -8.63777,7.361603 -3.40561,1.41736 -4.24155,1.37999 -6.35731,-0.28427 z"
       id="path23017" />
  </g>
  <g
     inkscape:groupmode="layer"
     inkscape:label="Image"
     id="g8"
     transform="translate(-772.03114,-34.271083)"
     style="display:inline"
     sodipodi:insensitive="true">
    <g
       id="g2488">
      <g
         id="g2185"
         transform="translate(368.39584,-16.134125)"
         style="fill:none">
        <path
           style="font-variation-settings:normal;opacity:1;fill:none;fill-opacity:1;stroke:#000000;stroke-width:1;stroke-linecap:butt;stroke-linejoin:miter;stroke-miterlimit:4;stroke-dasharray:none;stroke-dashoffset:0;stroke-opacity:1;stop-color:#000000;stop-opacity:1"
           d="M 474.40257,776.62437 475.2307,787.39964 562.75,787.25 c -1.74075,-18.2492 14.50055,-34.74701 19.83638,-52.38085 2.24689,-12.21364 6.90954,-25.11751 6.23105,-36.49533 l 1.26895,-2.25467 c 2.01521,0.1412 3.53087,1.53129 4.60335,4.02932 1.5017,3.75804 5.16253,5.79906 4.52076,12.12927 0,0 0.27853,25.92232 2.46727,34.37144 4.33712,16.7425 16.05205,40.7135 16.05205,40.7135 l 84.04647,-0.0349 0.0301,-31.88046 -4.54047,-28.85582 c -0.24677,-1.27635 -4.17452,13.28283 -4.41243,12.06086 -0.24056,-1.23561 4.39723,-11.12146 4.17148,-12.31273 -2.06646,-10.90457 -3.39093,-20.18884 -1.75283,-32.1962 0.2372,-1.73872 -1.13779,-3.14441 -1.0221,-4.89339 10.82074,-32.33963 19.56067,-65.71967 34,-96.25 l 0.5,-32 16.26232,-1.57749 c 4.83252,-4.29903 6.93219,-10.38919 4.30978,-19.73723 4.20944,-2.5451 3.59704,-7.17875 3.24933,-11.98989 -0.22229,-3.07569 -0.3364,-6.22393 0.98662,-8.94539 l -5.18483,-1.19359 0.17709,-4.20249 c 3.40708,-5.53464 2.28211,-11.06928 0.69969,-16.60392 0,0 6.30958,-15.42131 6,-23.5 -0.20888,-5.45099 -5.25,-15.5 -5.25,-15.5 l 4,-9.5 c 0,0 -8.37682,-21.58133 -4.25,-31.25 0.8899,-2.08494 4.58994,-1.92378 5.5,-4 1.48769,-3.39405 -2.62019,-7.58621 -1.28446,-11.04288 C 754.68863,400.08586 758.5,398 758.5,398 c -1.61254,0.11518 -9.79281,-48.39608 -19.75,-66.75 -1.2571,-2.31719 -6.10302,-2.4708 -8.95044,-4.31409 -3.578,-2.31623 -5.93144,-0.507 -9.09673,-1.72998 -4.36297,-1.68573 -8.99572,-5.95073 -8.99572,-5.95073 l -5.11612,0.0126 c -2.68989,-1.80324 -5.32916,-3.67735 -8.82719,-4.3492 C 692.62627,313.7765 688.3047,310.55745 685,304.75 l -5.79111,0.8594 L 655.25,287 650.5,273.5 c -11.54856,-5.15296 -18.55632,-13.55408 -26.57046,-20.91605 3.91404,-11.32634 6.06869,-22.40133 7.66421,-33.39645 L 641,209.75 l 4.78033,-25.0481 c 3.41952,-4.82521 6.19198,-7.37567 7.30012,-12.66316 0.93026,5.62 5.7206,9.03424 9.78567,12.86291 -4.95764,-5.63103 -7.13636,-14.31979 -5.52219,-21.35907 8.64559,-0.93799 6.70067,4.4609 10.21466,7.08354 l 1.3049,-14.99161 L 676.25,158.5 c -5.33801,-8.10721 -6.64678,-19.57213 -3.5,-34.75 0,0 4.80068,-12.73903 1.9948,-19.62868 C 672.65229,98.983307 667.44062,97.142115 663.75,93 c -3.58469,-4.023231 -2.88455,-10.992606 -7.12132,-14.512563 -4.81399,-3.999526 -11.68761,0.443408 -16.51256,-3.542893 -4.51578,-3.730869 -1.6308,-11.797063 -5.40901,-16.71967 -2.86166,-3.728432 -10.63567,-6.831299 -15.31587,-7.262563 -9.95432,-0.917257 -14.70664,9.466725 -23.46967,9.689339 -7.59598,0.192967 -10.30161,-6.847793 -17.89124,-6.482233 -6.68769,0.322118 -18.46967,4.616117 -18.46967,4.616117 -2.61616,1.317683 -2.32831,4.420859 -2.72577,6.553778 -1.09291,5.86482 -1.38389,9.595421 -5.63945,7.989115 -28.45595,-5.55559 -14.87876,10.586214 -19.7028,15.580583 -1.25958,2.4962 -7.6622,7.343717 -11.90596,7.146446 -6.23305,2.028931 -8.65674,4.239264 -8.97891,6.549664 -0.40946,2.93638 2.57564,6.0344 5.44921,9.12711 -0.3982,9.5348 -9.54485,15.27089 5.91121,40.65994 C 519.9825,164.26845 515.79653,172.4258 511.5,175 c 6.46741,-0.96001 13.02669,-1.43313 17.20285,-14.5368 1.00634,5.21459 -1.22154,13.87532 -1.93356,21.23785 l 5.67541,-4.63595 -2.47595,7.9974 c 0,0 8.58644,-3.34219 11.69378,-7.30086 0.95522,-1.21692 1.86972,-3.76223 1.86972,-3.76223 l 1.59946,34.3674 9.99609,13.09833 5.68743,27.74778 c -10.34048,3.94988 -10.024,17.66865 -14.99414,26.54134 -12.73734,7.49939 -28.1997,11.72875 -36.70978,24.30085 -1.16755,-2.22524 -3.39605,-3.16851 -10.16844,1.37877 -2.37707,-0.25126 -3.39966,-1.31521 -4.65335,-2.2405 -10.00535,10.91269 -17.83611,26.02959 -34.46929,24.12849 -12.88221,6.41472 -26.45069,11.84906 -36.19274,22.74973 l -2.75316,6.79657 c 4.30382,17.62499 2.66513,26.51245 0.45803,33.11897 -0.73068,2.18716 0.58233,7.83357 -0.22229,9.72616 -1.84446,4.33842 -5.79083,4.74635 -6.61694,11.19658 l 3.33406,8.02769 c 3.17013,2.24173 5.56623,6.41026 9.34211,6.74924 -1.85557,5.07717 -6.65361,6.87222 -7.58012,10.62941 -0.63231,2.56413 6.089,3.11031 5.30203,5.87655 -1.31615,4.62633 -9.22641,5.96575 -9.34697,11.10716 0,0 9.53691,7.23004 7.24015,10.95674 -1.36035,2.20731 -5.16591,7.2728 -2.39909,12.63308 1.52572,2.95586 -1.59879,8.54011 -1.49222,11.85863 0.17163,5.34473 -1.97885,9.27427 2.58442,14.24805 1.28995,1.40599 -1.75914,2.20377 -1.85852,3.77688 -0.0977,1.5463 3.49534,1.91475 2.9412,3.47071 -0.50648,1.42212 1.70874,9.19489 0.33077,8.03974 -2.59192,-2.1728 -8.91486,-1.40329 -8.91486,1.89375 -2.57194,4.82303 -9.03895,11.23049 -4.98882,14.03687 3.62926,2.51475 0.71781,4.28342 -0.23958,6.44001 -2.2264,5.01514 0.59486,8.56772 3.53491,17.00794 l 11.68958,1.98251 c 0.77378,9.60849 -3.72164,19.43344 -2.41285,29.29889 4.4205,33.32108 8.42402,53.32055 16.60928,86.81299 l -0.85374,9.71474 2.61751,5.89277 -7.08436,44.93568 8.11219,5.71443 6.79577,11.17552 9.1049,19.03286 22.17598,10.26603 c 7.86712,-2.13535 16.06779,1.08358 23.81704,-5.90829 -0.3273,-4.10646 -12.85089,-4.12173 -11.28268,-3.93291 2.95121,0.35534 10.9897,-3.58856 13.35556,-6.40251 0.91962,-1.09381 -4.4231,-2.58487 -5.08063,-2.66466 -7.19219,-0.87278 -10.46517,0.93677 -15.92294,-0.6063 -1.89669,-3.75036 -9.34095,-13.7418 -7.74403,-13.88972 -1.56464,0.20862 8.71984,10.46778 11.70515,10.75323 2.96676,0.28368 5.76484,-4.68349 5.10077,-7.58886 -2.18064,-9.54043 -5.81572,-25.09091 -5.76179,-25.08321 L 487.5,707 c 0,0 -4.82359,-10.45111 -10.06738,-21.1705 C 471.73508,674.18256 465.54147,662.2189 464.5,663 c -2,1.5 10.5603,-46.04908 11,-69.5 0.24429,-13.029 -4.65968,-38.81517 -4.65968,-38.81517 5.4188,0.60778 11.26265,0.57312 17.5,-0.86547 1.2541,-4.7058 5.86031,-10.32289 1.64307,-12.43676 -4.97794,-2.49516 -2.04976,-5.34237 -0.0391,-8.15968 3.15263,-4.41744 -0.67217,-15.5546 -5.9853,-15.56114 l 3.46243,-13.21985 -2.29801,-4.81397 c 2.45866,-6.16308 5.08464,-12.29278 5.74121,-19.55441 0.45431,-5.02463 -0.95569,-11.14405 -0.23105,-15.9202 0.41392,-2.72817 2.58122,-3.9467 3.41704,-6.61246 1.20558,-3.84508 1.16908,-9.17305 1.94939,-13.54089 1.46946,10.60689 0.60817,19.29053 -0.25517,29.37456 -0.31869,3.72234 1.62662,9.18164 0.38679,12.76524 -3.7684,10.8922 -4.66229,15.52673 3.60608,20.38261 m -3.73991,51.14974 c -9.47567,20.93323 -4.51078,19.19607 -3.51173,22.85002 0.21864,0.79966 -1.06444,7.90763 -2.05103,10.92404 -4.41318,26.30643 -6.54881,45.04855 -8.71534,70.96136 -0.41357,4.94656 -1.062,16.78958 -1.38947,25.00789 -0.0929,2.33146 0.54713,4.01765 0.51858,5.52546"
           id="path4700"
           sodipodi:nodetypes="ccccccccsccccssscccccsccccsccssscsssccccccccccccccccccsssssssssscccscccccccscccccccccccsscccsssssssssscssccscccccccccsssccssccsssccsscccssscssccscssc" />
        <path
           style="font-variation-settings:normal;opacity:1;fill:none;fill-opacity:1;stroke:#000000;stroke-width:1;stroke-linecap:butt;stroke-linejoin:miter;stroke-miterlimit:4;stroke-dasharray:none;stroke-dashoffset:0;stroke-opacity:1;stop-color:#000000;stop-opacity:1"
           d="m 671.76232,644.98055 c -2.67863,-10.1788 -0.0784,-12.01471 -3.04902,-21.99888 -2.29084,-10.03858 -2.66847,-14.35175 -5.4633,-23.23167 1.05076,-5.36591 3.20484,-10.81689 1.91375,-18.52464 l 0.6443,-4.69575 C 671.66832,573.03234 668.79353,564.31934 672,558.5 c 1.90247,2.02839 4.04135,2.23947 7.58403,0.98743 L 672.25,580.25 Z"
           id="path4704"
           sodipodi:nodetypes="ccccccccc" />
        <path
           style="font-variation-settings:normal;opacity:1;fill:none;fill-opacity:1;stroke:#000000;stroke-width:1;stroke-linecap:butt;stroke-linejoin:miter;stroke-miterlimit:4;stroke-dasharray:none;stroke-dashoffset:0;stroke-opacity:1;stop-color:#000000;stop-opacity:1"
           d="m 663.75,530.25 c 2.5,6.7061 5,14.23076 7.5,24.25 0.004,-5.57793 0.27163,-10.80449 2.25,-13.75 -3.25,-0.48106 -6.5,-6.34305 -9.75,-10.5 z"
           id="path4706"
           sodipodi:nodetypes="cccc" />
        <path
           style="font-variation-settings:normal;opacity:1;fill:none;fill-opacity:1;stroke:#000000;stroke-width:1;stroke-linecap:butt;stroke-linejoin:miter;stroke-miterlimit:4;stroke-dasharray:none;stroke-dashoffset:0;stroke-opacity:1;stop-color:#000000;stop-opacity:1"
           d="m 675.4272,518.71698 -5.63528,0.1508 L 665.25,514 l 7.5,-18.75 c 2.85288,-7.1322 -1.94284,-15.85512 1.73668,-21.6361 2.23432,-5.2463 1.139,-10.4926 1.26332,-15.7389 1.56304,1.97863 2.91004,4.1733 5.75,4.875 0,0 -4.03511,3.34745 -3.25,5.25 0.68621,1.6629 5.25,1.25 5.25,1.25 0,0 -3.28103,4.88935 -3.07799,7.62175 C 680.54751,478.56071 683,481.25 683,481.25 c -4.08452,1.76327 -8.69006,5.76595 -5.74031,7.41477 3.59373,1.84668 2.34593,8.49012 2.74031,9.33523 l -7.75,6.25 1.75,5 z"
           id="path4708"
           sodipodi:nodetypes="cccscccscscccccc" />
        <path
           style="font-variation-settings:normal;opacity:1;fill:none;fill-opacity:1;stroke:#000000;stroke-width:1;stroke-linecap:butt;stroke-linejoin:miter;stroke-miterlimit:4;stroke-dasharray:none;stroke-dashoffset:0;stroke-opacity:1;stop-color:#000000;stop-opacity:1"
           d="m 545.30376,276.24895 c 0,-0.8125 -8.78649,29.57473 -8.78649,29.57473 l -3.71231,5.12653 -4.41942,46.66904 8.48528,-24.2184 2.65165,-11.66727 3.00521,-2.82842 4.59619,-5.65686 6.01041,10.07627 6.54074,41.0122 c 6.0538,4.01789 10.98143,13.10358 16.44023,19.79899 9.96594,4.75416 18.34274,13.48118 27.04683,21.38998 4.22961,-2.71214 7.94603,-6.18826 12.20776,-8.83259 8.12052,-5.03863 16.57676,-9.68798 22.79403,-18.74458 l 0.0901,-11.58959 -1.32751,-8.03262 5.3033,-8.83883 -2.29809,-4.5962 c 1.17574,-4.6799 4.82211,-7.81199 7.85712,-11.56226 1.5482,-1.91307 2.10507,-4.63432 3.81014,-6.46896 2.10917,1.76432 4.24469,3.49351 8.3085,2.65165 2.06768,3.59129 3.99129,7.26902 4.41942,11.84404 l 1.59099,-11.31371 -10.93472,-43.73125"
           id="path7286"
           sodipodi:nodetypes="ccccccccccccscccccsccccc" />
        <path
           style="font-variation-settings:normal;opacity:1;fill:none;fill-opacity:1;stroke:#000000;stroke-width:1;stroke-linecap:butt;stroke-linejoin:miter;stroke-miterlimit:4;stroke-dasharray:none;stroke-dashoffset:0;stroke-opacity:1;stop-color:#000000;stop-opacity:1"
           d="m 565.125,296.625 c -0.59829,-8.24285 -0.44424,-15.06854 -1.02486,-23.3136 -0.53773,-7.63597 -1.37745,-15.2342 -1.51443,-11.12145 -0.24813,3.79875 0.39965,7.91746 -1.33571,11.18505 l -3.125,6.875 9.5,22.875 12,40.375 1,8.5 c 8.87639,14.35068 15.38791,34.61355 22.5,53.375 4.78882,-14.48059 12.75375,-27.37312 20.25,-40.5 l 6.75,-21.5 c 4.52515,-7.97949 11.49107,-14.37247 11.75,-25.125 0.0743,-11.07894 2.33711,-22.26208 -2.125,-33.125 l -14.75,-14 -3.125,-7.75"
           id="path7299"
           sodipodi:nodetypes="csccccccccccccc" />
        <path
           style="font-variation-settings:normal;opacity:1;fill:none;fill-opacity:1;stroke:#000000;stroke-width:1;stroke-linecap:butt;stroke-linejoin:miter;stroke-miterlimit:4;stroke-dasharray:none;stroke-dashoffset:0;stroke-opacity:1;stop-color:#000000;stop-opacity:1"
           d="m 624,253 c -3.6596,14.06827 -4.11305,27.60217 -6,41.375"
           id="path7301"
           sodipodi:nodetypes="cc" />
        <path
           style="font-variation-settings:normal;opacity:1;fill:none;fill-opacity:1;stroke:#000000;stroke-width:1;stroke-linecap:butt;stroke-linejoin:miter;stroke-miterlimit:4;stroke-dasharray:none;stroke-dashoffset:0;stroke-opacity:1;stop-color:#000000;stop-opacity:1"
           d="m 617.6875,336.5625 7.5,-5.625 c 4.69849,0.008 9.37856,-0.0846 13.75,-1.875"
           id="path7305"
           sodipodi:nodetypes="ccc" />
        <path
           style="font-variation-settings:normal;opacity:1;fill:none;fill-opacity:1;stroke:#000000;stroke-width:1;stroke-linecap:butt;stroke-linejoin:miter;stroke-miterlimit:4;stroke-dasharray:none;stroke-dashoffset:0;stroke-opacity:1;stop-color:#000000;stop-opacity:1"
           d="m 583.1875,337.625 c -0.33931,-1.60761 -0.96783,-2.714 -1.75321,-3.54846 -1.71066,-1.81753 -4.16549,-2.34494 -5.99679,-3.95154"
           id="path7307"
           sodipodi:nodetypes="ccc" />
        <path
           style="font-variation-settings:normal;opacity:1;fill:none;fill-opacity:1;stroke:#000000;stroke-width:1;stroke-linecap:butt;stroke-linejoin:miter;stroke-miterlimit:4;stroke-dasharray:none;stroke-dashoffset:0;stroke-opacity:1;stop-color:#000000;stop-opacity:1"
           d="m 666.36189,576.70054 c -8.22972,5.76768 -23.83016,2.07546 -34.91554,-3.23695 -2.40346,-1.1518 -5.24663,-0.29176 -7.76994,-0.47001 -12.68648,-0.8962 -25.87138,6.29577 -33.5958,-3.77263 -12.68429,6.51381 -9.62487,-0.89887 -14.80158,-0.961 -9.99472,-0.11995 -22.18246,-0.57332 -31.01216,-3.95533 -20.31674,-1.67427 -33.23367,-2.90804 -41.17857,-6.45695 -18.26397,-8.15833 -10.25271,-21.3275 -5.46016,-35.13526 0.63183,-1.82036 1.80302,-3.60222 1.66007,-5.48434 -0.25156,-3.3122 -6.61573,-4.5311 0.64391,-11.1896"
           id="path7311"
           sodipodi:nodetypes="csscscsssc" />
        <path
           style="font-variation-settings:normal;opacity:1;fill:none;fill-opacity:1;stroke:#000000;stroke-width:1;stroke-linecap:butt;stroke-linejoin:miter;stroke-miterlimit:4;stroke-dasharray:none;stroke-dashoffset:0;stroke-opacity:1;stop-color:#000000;stop-opacity:1"
           d="m 502.04958,558.16474 c -1.59563,-0.16605 -5.08972,-0.0903 -6.67931,-0.24769"
           id="path7315"
           sodipodi:nodetypes="cc" />
        <path
           style="font-variation-settings:normal;opacity:1;fill:none;fill-opacity:1;stroke:#000000;stroke-width:1;stroke-linecap:butt;stroke-linejoin:miter;stroke-miterlimit:4;stroke-dasharray:none;stroke-dashoffset:0;stroke-opacity:1;stop-color:#000000"
           d="m 663.07106,599.89422 c -4.34213,-0.52115 -10.00356,-1.70195 -15.20279,-2.65165 -23.40099,-4.12225 -48.86591,-5.22161 -73.76407,-7.97479 -22.62575,-2.5019 -44.88897,-7.00816 -66.13786,-9.61752 -5.58928,-0.68637 -11.10839,-0.25422 -16.54545,-0.79247"
           id="path7315-5"
           sodipodi:nodetypes="ccssc" />
        <path
           style="font-variation-settings:normal;opacity:1;fill:none;fill-opacity:1;stroke:#000000;stroke-width:1;stroke-linecap:butt;stroke-linejoin:miter;stroke-miterlimit:4;stroke-dasharray:none;stroke-dashoffset:0;stroke-opacity:1;stop-color:#000000;stop-opacity:1"
           d="m 543.14011,174.14649 5.03875,4.99252 4.40138,5.67725 c 2.00959,-5.3603 -1.73801,-8.56165 -4.57248,-12.10543 0,0 2.55945,1.9403 4.02566,2.55255 2.07708,0.86732 6.58094,0.32493 6.58094,0.32493 0,0 -7.28044,-4.87595 -9.32266,-9.00203 -1.8669,-3.77187 -2.92856,-8.27409 -2.23862,-12.42575 0.68291,-4.1094 6.17917,-8.40656 1.06794,-16.6667 -4.00256,-6.46846 2.00806,-14.1037 2.00806,-14.1037 0.12415,1.06966 0.42997,8.23641 4.06586,8.48528 0,0 5.60543,-0.38049 8.16744,0.55904 1.47763,0.54187 3.05277,1.41537 3.80222,2.79933 1.13829,2.10201 0.47469,5.9597 1.41309,3.46245 0.9725,-2.588 1.59297,-2.48058 0.87589,-5.17589 -0.29929,-1.12497 0.29723,-3.71741 -1.9753,-4.52483 -3.59176,-1.27615 -3.82293,-2.27952 -3.55067,-3.75973 0.3646,-1.98227 3.8556,-2.23955 2.69566,-4.03964 -2.69748,-4.18615 -1.57107,-10.48784 2.12269,-15.28887 0.41368,-0.5377 -0.81708,4.26075 0.70334,9.92633 0.56137,2.09183 4.59941,2.90565 5.84809,4.92909 3.85748,6.2509 0.20683,17.06937 0.81334,16.98742 0.30166,-0.0408 4.43432,-5.48711 4.89644,-10.10971 0.24111,-2.7923 -0.43903,-5.13478 -0.57491,-7.37365 -0.13908,-2.29172 0.25235,-4.46918 -0.70206,-6.4111 -1.96901,-4.0063 -5.94573,-7.4841 -5.16456,-9.93189 1.20122,-3.764 11.01708,-7.211186 22.7762,-1.2334 18.17176,-3.156257 21.1005,-2.67821 24.5256,0.80585 0.85221,0.86688 -0.34462,7.97123 -4.69717,7.64676 -2.42425,-0.18072 -3.82911,5.72078 -3.01667,9.07816 0.78243,3.23335 4.5924,8.7318 5.75195,13.74361 0.0571,-6.08623 -0.36893,-10.01811 -0.29143,-11.88729 0.38921,-9.38735 7.60873,-1.54627 5.5237,-7.34557 6.48039,-5.07403 4.77532,-3.0549 4.18469,0.0202 -0.70677,3.67978 -3.3913,7.63475 -0.67062,8.47959 1.11718,0.29383 0.50384,5.50199 0.35563,6.62037 -0.006,4.31931 7.20663,6.82353 7.26584,7.77348 0.18093,2.90322 -5.9955,-6.72838 -0.44867,-7.40522 2.15653,-0.15314 -0.73462,-6.6651 0.52232,-5.7487 3.1606,6.22092 10.20491,13.55303 6.26657,17.63701 -10.98301,11.38914 0.3623,12.23255 0.10166,17.50243 -0.16875,3.41199 -5.56072,5.0562 -6.91268,8.31395 -0.65743,1.58418 1.8223,4.25366 1.52562,6.0263 -0.36635,2.18891 -3.27585,4.33095 -3.61994,6.40854 -0.31642,1.91048 1.97686,3.76646 0.71233,5.55427 0,0 2.34683,-5.20119 4.64032,-6.61172 1.50035,-0.92274 4.18949,-2.17948 5.22953,-0.75793 2.55206,3.4882 -5.65685,11.66726 -5.65685,11.66726 l 15.02602,-17.67767 0.53033,1.06066"
           id="path355"
           sodipodi:nodetypes="ccccscssscsssssssssssscssscssscscsccsccssssscssccc" />
        <path
           style="font-variation-settings:normal;opacity:1;fill:none;fill-opacity:1;stroke:#000000;stroke-width:1;stroke-linecap:butt;stroke-linejoin:miter;stroke-miterlimit:4;stroke-dasharray:none;stroke-dashoffset:0;stroke-opacity:1;stop-color:#000000;stop-opacity:1"
           d="m 589.90392,145.20712 c -5.74669,0.96412 -11.75998,0.9685 -18.06686,-0.084 -8.00281,-6.17651 -6.2786,-3.61089 -9.41157,-5.37805 l -11.83933,0.35477 10.07466,1.74603 c 1.21074,1.58888 3.21945,2.49352 4.49239,4.00776 3.20254,3.80964 5.08069,9.01056 9.76842,10.43975 6.05549,0.17095 12.77932,-5.94836 14.98229,-11.08623 z"
           id="path569"
           sodipodi:nodetypes="cccccsccc" />
        <path
           style="font-variation-settings:normal;opacity:1;fill:none;fill-opacity:1;stroke:#000000;stroke-width:1;stroke-linecap:butt;stroke-linejoin:miter;stroke-miterlimit:4;stroke-dasharray:none;stroke-dashoffset:0;stroke-opacity:1;stop-color:#000000"
           d="m 598.8464,145.21473 c 6.35674,2.92269 12.58965,2.59124 18.06686,-0.084 8.96948,-5.62413 6.30714,-3.59458 9.41157,-5.37805 2.85709,0.33613 15.323,-0.60892 8.57126,1.00839 l -6.80659,1.09241 c -4.25679,5.02833 -7.02799,12.6703 -13.84487,14.32868 -11.31927,2.7537 -15.39823,-6.83006 -15.39823,-10.61088 z"
           id="path569-1"
           sodipodi:nodetypes="cccccssc" />
        <path
           style="font-variation-settings:normal;opacity:1;fill:none;fill-opacity:1;stroke:#000000;stroke-width:1;stroke-linecap:butt;stroke-linejoin:miter;stroke-miterlimit:4;stroke-dasharray:none;stroke-dashoffset:0;stroke-opacity:1;stop-color:#000000;stop-opacity:1"
           d="m 577.63526,175.4586 c -1.51442,-4.59306 -2.84524,-9.09455 -6.38642,-12.94091 -6.51974,-2.17629 -10.49693,-1.80927 -18.40298,-2.68901 3.38338,4.83021 3.54166,7.09542 9.41156,11.42833 5.43869,2.09263 9.83419,4.8381 15.37784,4.20159 z"
           id="path605"
           sodipodi:nodetypes="ccccc" />
        <ellipse
           style="opacity:1;fill:none;fill-opacity:1;stroke:#000000;stroke-width:1.01888;stroke-opacity:1"
           id="path659"
           cx="567.99261"
           cy="167.47557"
           rx="4.885417"
           ry="5.2425523" />
        <ellipse
           style="opacity:1;fill:none;fill-opacity:1;stroke:#000000;stroke-width:1.14866;stroke-opacity:1"
           id="path661"
           cx="568.03461"
           cy="167.49657"
           rx="1.71135"
           ry="1.8373978" />
        <path
           style="font-variation-settings:normal;opacity:1;fill:none;fill-opacity:1;stroke:#000000;stroke-width:1;stroke-linecap:butt;stroke-linejoin:miter;stroke-miterlimit:4;stroke-dasharray:none;stroke-dashoffset:0;stroke-opacity:1;stop-color:#000000"
           d="m 609.92506,176.39548 c 1.51442,-4.59306 2.84524,-9.09455 6.38642,-12.94091 6.51974,-2.17629 10.49693,-1.80927 18.40298,-2.68901 -3.38338,4.83021 -3.54166,7.09542 -9.41156,11.42833 -5.43869,2.09263 -9.83419,4.8381 -15.37784,4.20159 z"
           id="path605-8"
           sodipodi:nodetypes="ccccc" />
        <ellipse
           style="opacity:1;fill:none;fill-opacity:1;stroke:#000000;stroke-width:1.01888;stroke-opacity:1"
           id="path659-0"
           cx="-619.56775"
           cy="168.41246"
           rx="4.885417"
           ry="5.2425523"
           transform="scale(-1,1)" />
        <ellipse
           style="opacity:1;fill:none;fill-opacity:1;stroke:#000000;stroke-width:1.14866;stroke-opacity:1"
           id="path661-4"
           cx="-619.52576"
           cy="168.43346"
           rx="1.71135"
           ry="1.8373978"
           transform="scale(-1,1)" />
        <path
           style="font-variation-settings:normal;opacity:1;fill:none;fill-opacity:1;stroke:#000000;stroke-width:1;stroke-linecap:butt;stroke-linejoin:miter;stroke-miterlimit:4;stroke-dasharray:none;stroke-dashoffset:0;stroke-opacity:0.966102;stop-color:#000000;stop-opacity:1"
           d="m 578.97977,172.43345 c -0.32577,-2.88096 -0.94395,-5.56699 -1.97151,-7.9801 -1.22068,-2.86664 -3.0191,-5.34812 -5.59136,-7.3137"
           id="path726"
           sodipodi:nodetypes="csc" />
        <path
           style="font-variation-settings:normal;opacity:1;fill:none;fill-opacity:1;stroke:#000000;stroke-width:1;stroke-linecap:butt;stroke-linejoin:miter;stroke-miterlimit:4;stroke-dasharray:none;stroke-dashoffset:0;stroke-opacity:1;stop-color:#000000;stop-opacity:1"
           d="m 609.06319,171.59314 c 0.29278,-7.16909 3.66774,-9.81179 7.899,-12.60479"
           id="path728"
           sodipodi:nodetypes="cc" />
        <path
           style="font-variation-settings:normal;opacity:1;fill:none;fill-opacity:1;stroke:#000000;stroke-width:1;stroke-linecap:butt;stroke-linejoin:miter;stroke-miterlimit:4;stroke-dasharray:none;stroke-dashoffset:0;stroke-opacity:1;stop-color:#000000;stop-opacity:1"
           d="m 587.29893,203.02106 c 2.09894,0.87616 3.30109,2.02176 3.19321,5.54611 1.49418,1.14717 4.7885,2.72295 7.14271,0 -0.75071,-2.13522 0.0852,-4.46536 2.43692,-5.71417"
           id="path730"
           sodipodi:nodetypes="cccc" />
        <path
           style="font-variation-settings:normal;opacity:1;fill:none;fill-opacity:1;stroke:#000000;stroke-width:1;stroke-linecap:butt;stroke-linejoin:miter;stroke-miterlimit:4;stroke-dasharray:none;stroke-dashoffset:0;stroke-opacity:1;stop-color:#000000;stop-opacity:1"
           d="m 590.40811,176.97118 v 23.86505"
           id="path732" />
        <path
           style="font-variation-settings:normal;opacity:1;fill:none;fill-opacity:1;stroke:#000000;stroke-width:1;stroke-linecap:butt;stroke-linejoin:miter;stroke-miterlimit:4;stroke-dasharray:none;stroke-dashoffset:0;stroke-opacity:1;stop-color:#000000"
           d="m 596.29034,177.13924 v 23.86505"
           id="path732-1" />
        <path
           style="font-variation-settings:normal;opacity:1;fill:none;fill-opacity:1;stroke:#000000;stroke-width:1;stroke-linecap:butt;stroke-linejoin:miter;stroke-miterlimit:4;stroke-dasharray:none;stroke-dashoffset:0;stroke-opacity:1;stop-color:#000000;stop-opacity:1"
           d="m 580.66041,225.70968 7.05868,-6.89062 c 6.5142,2.59271 8.8225,0.97952 11.93253,0.16806 l 7.22674,6.89062"
           id="path756"
           sodipodi:nodetypes="cccc" />
        <path
           style="font-variation-settings:normal;opacity:1;fill:none;fill-opacity:1;stroke:#000000;stroke-width:1;stroke-linecap:butt;stroke-linejoin:miter;stroke-miterlimit:4;stroke-dasharray:none;stroke-dashoffset:0;stroke-opacity:1;stop-color:#000000;stop-opacity:1"
           d="m 588.55941,227.55838 c 3.6282,1.03145 7.35525,1.46979 11.42833,-0.16807"
           id="path758"
           sodipodi:nodetypes="cc" />
        <path
           style="font-variation-settings:normal;opacity:1;fill:none;fill-opacity:1;stroke:#000000;stroke-width:1;stroke-linecap:butt;stroke-linejoin:miter;stroke-miterlimit:4;stroke-dasharray:none;stroke-dashoffset:0;stroke-opacity:1;stop-color:#000000;stop-opacity:1"
           d="m 554.74068,221.04063 c 8.8031,8.23859 18.14302,14.06147 26.14459,25.90691 10.15684,2.96379 19.99933,2.15548 29.70976,-0.23768 3.81038,-11.13466 13.12997,-18.96379 21.15335,-27.57065"
           id="path823"
           sodipodi:nodetypes="cccc" />
        <path
           style="font-variation-settings:normal;opacity:1;fill:none;fill-opacity:1;stroke:#000000;stroke-width:1;stroke-linecap:butt;stroke-linejoin:miter;stroke-miterlimit:4;stroke-dasharray:none;stroke-dashoffset:0;stroke-opacity:1;stop-color:#000000;stop-opacity:1"
           d="m 495.45206,445.70518 c 1.04267,0.34756 5.30191,-5.93378 1.00839,-10.75608 -1.26904,-1.42534 4.70274,-5.50189 3.49483,-8.10487 -1.25073,-2.69528 -5.5686,-3.38397 -5.84773,-5.34024 -0.59575,-4.17533 2.7753,-3.17806 2.68903,-7.3948 -0.13843,-6.76673 -6.72256,-19.15927 -6.72256,-19.15927"
           id="path825"
           sodipodi:nodetypes="cssssc" />
        <path
           style="font-variation-settings:normal;opacity:1;fill:none;fill-opacity:1;stroke:#000000;stroke-width:1;stroke-linecap:butt;stroke-linejoin:miter;stroke-miterlimit:4;stroke-dasharray:none;stroke-dashoffset:0;stroke-opacity:1;stop-color:#000000;stop-opacity:1"
           d="m 675.24347,458.00569 c 0,0 1.06939,-6.73899 5.16426,-11.1033 1.48854,-1.58648 2.56812,-5.89758 3.39215,-7.91095 1.09893,-2.68505 -4.87358,-4.2315 -4.99124,-7.13034 -0.15265,-3.76077 5.5402,-5.98452 5.70428,-9.7448 0.14522,-3.3281 -3.7446,-5.74352 -4.27821,-9.03177 -0.84371,-5.19918 1.90143,-15.68675 1.90143,-15.68675"
           id="path827"
           sodipodi:nodetypes="csssssc" />
        <path
           style="font-variation-settings:normal;opacity:1;fill:none;fill-opacity:1;stroke:#000000;stroke-width:1;stroke-linecap:butt;stroke-linejoin:miter;stroke-miterlimit:4;stroke-dasharray:none;stroke-dashoffset:0;stroke-opacity:1;stop-color:#000000;stop-opacity:1"
           d="m 601.66838,404.02536 c -0.53499,10.22109 -8.09533,15.91489 -8.73932,23.52893 -5.25292,48.20456 3.0993,11.9159 5.97186,68.28373 -2.44627,24.29384 -27.44552,29.80278 -8.74621,73.40102"
           id="path829"
           sodipodi:nodetypes="cccc" />
        <path
           style="font-variation-settings:normal;opacity:1;fill:none;fill-opacity:1;stroke:#000000;stroke-width:1;stroke-linecap:butt;stroke-linejoin:miter;stroke-miterlimit:4;stroke-dasharray:none;stroke-dashoffset:0;stroke-opacity:1;stop-color:#000000;stop-opacity:1"
           d="m 575.77519,568.76368 -1.30723,20.32148"
           id="path835"
           sodipodi:nodetypes="cc" />
        <path
           style="font-variation-settings:normal;opacity:1;fill:none;fill-opacity:1;stroke:#000000;stroke-width:1;stroke-linecap:butt;stroke-linejoin:miter;stroke-miterlimit:4;stroke-dasharray:none;stroke-dashoffset:0;stroke-opacity:1;stop-color:#000000"
           d="m 601.91977,574.11143 -0.95071,17.82586"
           id="path835-2" />
        <path
           style="font-variation-settings:normal;opacity:1;fill:none;fill-opacity:1;stroke:#000000;stroke-width:1;stroke-linecap:butt;stroke-linejoin:miter;stroke-miterlimit:4;stroke-dasharray:none;stroke-dashoffset:0;stroke-opacity:1;stop-color:#000000;stop-opacity:1"
           d="m 423.18463,514.27521 c 6.19961,-1.10051 7.20515,0.6132 13.42675,1.74204 2.34477,0.42543 11.13879,2.21075 13.57032,2.33457 3.60806,0.18373 11.81384,-0.96378 15.54341,-1.08458 8.09289,-0.26212 10.43067,-1.20131 18.46668,0.36925"
           id="path859"
           sodipodi:nodetypes="csssc" />
        <path
           style="font-variation-settings:normal;opacity:1;fill:none;fill-opacity:1;stroke:#000000;stroke-width:1;stroke-linecap:butt;stroke-linejoin:miter;stroke-miterlimit:4;stroke-dasharray:none;stroke-dashoffset:0;stroke-opacity:1;stop-color:#000000;stop-opacity:1"
           d="m 423.85689,555.78697 c 5.9287,1.47828 13.01357,-0.26749 18.89472,1.57838 3.74797,1.17635 7.70799,-0.11096 11.70111,-0.76794 2.39224,-0.39359 4.79635,-0.15019 7.17387,-0.42641 3.11451,-0.36184 6.18338,-1.1899 9.1201,-1.22435"
           id="path861"
           sodipodi:nodetypes="csssc" />
        <path
           style="font-variation-settings:normal;opacity:1;fill:none;fill-opacity:1;stroke:#000000;stroke-width:1;stroke-linecap:butt;stroke-linejoin:miter;stroke-miterlimit:4;stroke-dasharray:none;stroke-dashoffset:0;stroke-opacity:1;stop-color:#000000;stop-opacity:1"
           d="m 491.63714,768.53213 -7.48686,0.11884 c -4.90444,-3.87275 -10.25743,-5.95131 -15.44907,-8.67525 -3.88259,-6.85305 -5.347,-13.70611 -4.15937,-20.55916 l 7.84338,-12.12158 c 5.08973,3.89664 2.00718,8.54772 6.12225,21.72536 -3.83152,-4.48043 -6.89733,-10.89157 -8.02368,-18.75439"
           id="path867"
           sodipodi:nodetypes="ccccccc" />
        <path
           style="font-variation-settings:normal;opacity:1;fill:none;fill-opacity:1;stroke:#000000;stroke-width:1;stroke-linecap:butt;stroke-linejoin:miter;stroke-miterlimit:4;stroke-dasharray:none;stroke-dashoffset:0;stroke-opacity:1;stop-color:#000000;stop-opacity:1"
           d="m 484.60055,759.11634 -6.27338,-0.92321 c -7.83821,-5.79842 -9.54475,-13.64074 -11.8839,-21.27219"
           id="path869"
           sodipodi:nodetypes="ccc" />
        <path
           style="font-variation-settings:normal;opacity:1;fill:none;fill-opacity:1;stroke:#000000;stroke-width:1;stroke-linecap:butt;stroke-linejoin:miter;stroke-miterlimit:4;stroke-dasharray:none;stroke-dashoffset:0;stroke-opacity:1;stop-color:#000000;stop-opacity:1"
           d="m 483.26569,744.59626 6.25871,-1.28561 c 0,0 2.43262,4.20593 2.12717,6.33081 -0.24131,1.67859 -1.6678,3.97309 -2.96502,4.13424 -2.16614,0.26909 -5.04942,-3.94877 -5.04942,-3.94877 -0.364,-2.44137 -3.00646,-5.39643 -0.37144,-5.23067 z"
           id="path873"
           sodipodi:nodetypes="ccsscc" />
        <path
           style="font-variation-settings:normal;opacity:1;fill:none;fill-opacity:1;stroke:#000000;stroke-width:1;stroke-linecap:butt;stroke-linejoin:miter;stroke-miterlimit:4;stroke-dasharray:none;stroke-dashoffset:0;stroke-opacity:1;stop-color:#000000;stop-opacity:1"
           d="m 671.91598,643.86996 c -0.12588,9.48047 -3.02604,26.16972 -5.22892,34.46333 l -6.17963,9.03177 0.95071,5.70427 -17.82585,24.24317 c 3.4007,14.27454 1.62121,28.07816 1.90142,42.06902 2.11845,4.29191 5.99597,0.66805 9.26945,-0.23768 7.46211,-6.59284 4.8107,-17.73676 6.65498,-26.85762 l 6.41731,12.24042 c -0.4547,8.83371 -4.21586,17.66741 -6.65498,26.50111 -6.35409,1.35787 -12.66075,2.97656 -18.42006,7.6057 -1.74498,5.73196 -2.55412,7.12511 4.04053,4.04052 l 10.36864,0.36541 c 14.3379,-3.32729 13.08226,-4.64361 17.91505,-7.02039 l 5.94196,-3.20866 c 5.70115,-11.07278 9.22217,-22.79959 11.76506,-34.81984"
           id="path875"
           sodipodi:nodetypes="cccccccccccccccc" />
        <path
           style="font-variation-settings:normal;opacity:1;fill:none;fill-opacity:1;stroke:#000000;stroke-width:1;stroke-linecap:butt;stroke-linejoin:miter;stroke-miterlimit:4;stroke-dasharray:none;stroke-dashoffset:0;stroke-opacity:1;stop-color:#000000;stop-opacity:1"
           d="m 647.67281,747.02226 7.13034,-1.66375 c 1.09187,3.23942 -0.98841,6.93201 -1.90142,10.45784 -1.94104,2.44172 -3.88207,1.84475 -5.82311,2.25794 z"
           id="path877"
           sodipodi:nodetypes="ccccc" />
        <path
           style="font-variation-settings:normal;opacity:1;fill:none;fill-opacity:1;stroke:#000000;stroke-width:1;stroke-linecap:butt;stroke-linejoin:miter;stroke-miterlimit:4;stroke-dasharray:none;stroke-dashoffset:0;stroke-opacity:1;stop-color:#000000;stop-opacity:1"
           d="m 661.10163,736.8021 4.99124,8.08106 -5.34776,17.3505 -10.81435,11.64622"
           id="path879" />
        <path
           style="font-variation-settings:normal;opacity:1;fill:none;fill-opacity:1;stroke:#000000;stroke-width:1;stroke-linecap:butt;stroke-linejoin:miter;stroke-miterlimit:4;stroke-dasharray:none;stroke-dashoffset:0;stroke-opacity:1;stop-color:#000000;stop-opacity:1"
           d="m 646.89156,782.62544 20.74621,-5.77458 c 5.21073,-6.50886 8.49495,-11.67287 13.0723,-17.23166 4.17378,-3.3449 2.81257,-7.6123 3.56517,-11.52739 l 0.23768,-7.0115"
           id="path881"
           sodipodi:nodetypes="ccccc" />
      </g>
      <path
         style="font-variation-settings:normal;opacity:1;vector-effect:none;fill:none;fill-opacity:1;stroke:#000000;stroke-width:1;stroke-linecap:butt;stroke-linejoin:miter;stroke-miterlimit:4;stroke-dasharray:none;stroke-dashoffset:0;stroke-opacity:1;-inkscape-stroke:none;stop-color:#000000;stop-opacity:1"
         d="m 1032.4737,514.57309 5.7043,-12.35926"
         id="path2187"
         sodipodi:nodetypes="cc" />
      <path
         style="font-variation-settings:normal;opacity:1;vector-effect:none;fill:none;fill-opacity:1;stroke:#000000;stroke-width:1;stroke-linecap:butt;stroke-linejoin:miter;stroke-miterlimit:4;stroke-dasharray:none;stroke-dashoffset:0;stroke-opacity:1;-inkscape-stroke:none;stop-color:#000000;stop-opacity:1"
         d="m 1039.604,536.67714 0.713,6.41731"
         id="path2189" />
      <path
         style="font-variation-settings:normal;opacity:1;fill:none;fill-opacity:1;stroke:#000000;stroke-width:1;stroke-linecap:butt;stroke-linejoin:miter;stroke-miterlimit:4;stroke-dasharray:none;stroke-dashoffset:0;stroke-opacity:1;stop-color:#000000;stop-opacity:1"
         d="m 1037.4938,503.06608 c 16.6605,-2.12316 28.65,3.08568 38.738,2.92675 20.0069,-0.31521 30.5514,-3.68908 45.3711,-3.54133"
         id="path2195"
         sodipodi:nodetypes="csc" />
      <path
         style="font-variation-settings:normal;opacity:1;vector-effect:none;fill:none;fill-opacity:1;stroke:#000000;stroke-width:1;stroke-linecap:butt;stroke-linejoin:miter;stroke-miterlimit:4;stroke-dasharray:none;stroke-dashoffset:0;stroke-opacity:1;-inkscape-stroke:none;stop-color:#000000;stop-opacity:1"
         d="m 1048.1748,542.86624 c 16.1865,0.69022 31.336,5.35893 49.898,1.89196"
         id="path2197"
         sodipodi:nodetypes="cc" />
    </g>
  </g>
</svg>
